<svg width="355" height="355" viewBox="0 0 355 355" fill="none" xmlns="http://www.w3.org/2000/svg">
<path d="M83.78 69.9349C72.846 72.7749 67.237 80.0879 69.509 88.5369C70.503 92.0869 73.698 95.1399 79.946 98.2639C86.975 101.885 89.886 104.938 91.874 110.973C93.649 116.298 93.649 166.85 91.945 195.605C91.377 204.906 90.88 212.432 90.525 215.84C90.383 217.615 90.028 221.094 89.815 223.65C89.318 229.046 88.892 232.809 88.324 236.785C86.336 251.482 85.484 253.044 75.899 260.144C69.438 264.901 67.734 267.883 68.373 273.208C68.941 277.894 70.574 281.089 73.982 283.858C79.307 288.118 85.413 289.041 101.175 287.976C116.44 286.982 157.407 286.485 168.98 287.124C185.452 288.118 218.183 288.615 223.011 287.976C224.36 287.763 227.058 287.408 228.975 287.195C238.276 286.059 248.713 282.864 256.878 278.533C274.131 269.445 287.55 252.263 291.526 234.158C293.159 226.703 293.017 214.775 291.171 207.817C287.408 193.546 276.119 180.482 261.209 173.24C254.819 170.116 253.257 169.051 252.263 167.205C250.843 164.578 252.05 162.164 257.162 157.265C269.587 145.195 274.699 132.486 273.847 115.801C272.995 98.0509 264.191 85.1289 247.293 76.6799C234.229 70.2189 223.295 68.8699 188.15 69.3669C154.567 69.9349 111.612 69.9349 97.98 69.5089C90.809 69.2249 85.839 69.4379 83.78 69.9349ZM186.375 102.311C192.765 105.506 197.451 113.884 198.516 124.037C199.865 136.675 197.948 147.893 193.475 153.786C189.641 158.756 182.328 161.667 175.299 161.028C167.915 160.318 167.347 157.975 167.205 131.705C167.134 106.287 167.702 103.092 172.175 101.033C175.299 99.6129 182.257 100.252 186.375 102.311ZM187.795 192.836C200.859 196.812 206.752 207.959 206.326 227.91C206.042 241.897 202.563 248.926 194.043 252.902C190.635 254.535 188.363 255.032 184.458 255.174C173.737 255.6 169.974 251.908 168.27 239.27C167.063 230.679 166.992 202.847 168.199 198.8C169.193 195.321 171.394 193.191 174.944 192.41C177.358 191.842 185.452 192.126 187.795 192.836Z" fill="#0D553C"/>
</svg>
