<svg width="26" height="22" viewBox="0 0 26 22" fill="none" xmlns="http://www.w3.org/2000/svg">
<path fill-rule="evenodd" clip-rule="evenodd" d="M24.8335 3.75C24.8335 2.23122 23.3784 1 21.5835 1H4.25012C2.4552 1 1.00012 2.23122 1.00012 3.75V18.4167C1.00012 19.9355 2.4552 21.1667 4.25012 21.1667H21.5835C23.3784 21.1667 24.8335 19.9355 24.8335 18.4167V3.75ZM22.6668 3.75C22.6668 3.24374 22.1818 2.83333 21.5835 2.83333H4.25012C3.65182 2.83333 3.16679 3.24374 3.16679 3.75V18.4167C3.16679 18.9229 3.65182 19.3333 4.25012 19.3333H21.5835C22.1818 19.3333 22.6668 18.9229 22.6668 18.4167V3.75Z" fill="#3FB439"/>
<path d="M13 4V18M6 11H20" stroke="#3FB439" stroke-width="2"/>
</svg>
