<svg width="15" height="15" viewBox="0 0 15 15" fill="none" xmlns="http://www.w3.org/2000/svg">
<g clip-path="url(#clip0_232_11)">
<path d="M12.25 6.12503C11.8495 6.12503 11.4697 6.21304 11.1263 6.36779L10.3257 4.94454L10.7177 4.24754C10.7397 4.20855 10.7462 4.1668 10.7462 4.12505H11.25C11.3165 4.12505 11.38 4.0988 11.4267 4.05181L11.6767 3.80182C11.7745 3.70406 11.7745 3.54606 11.6767 3.44832C11.579 3.35056 11.421 3.35056 11.3232 3.44832L11.1465 3.62507H9.24999C9.11174 3.62507 9 3.73707 9 3.87506C9 4.01305 9.11174 4.12505 9.24999 4.12505H10.2132L9.93199 4.62506H4.87825L5.17102 3.87506H6.25002C6.38827 3.87506 6.50001 3.76306 6.50001 3.62507C6.50001 3.48708 6.38827 3.37508 6.25002 3.37508H4.829L3.69325 6.29533C3.3985 6.18708 3.08177 6.12509 2.75001 6.12509C1.23375 6.12503 0 7.35878 0 8.87501C0 10.3913 1.23375 11.625 2.75001 11.625C4.26627 11.625 5.50002 10.3913 5.50002 8.87501C5.50002 7.86752 4.95378 6.987 4.14328 6.50826L4.32779 6.0355L7.06154 8.5415C7.02404 8.64623 7.00005 8.7575 7.00005 8.87498C7.00005 9.4265 7.44855 9.87497 8.00004 9.87497C8.46478 9.87497 8.85278 9.55496 8.96455 9.12497H9.51281C9.63955 10.5245 10.818 11.625 12.25 11.625C13.7663 11.625 15.0001 10.3912 15.0001 8.87495C15 7.35878 13.7662 6.12503 12.25 6.12503ZM5.00001 8.87501C5.00001 10.1155 3.99076 11.125 2.75001 11.125C1.50926 11.125 0.50001 10.1155 0.50001 8.87501C0.50001 7.63452 1.50926 6.62501 2.75001 6.62501C3.01802 6.62501 3.27375 6.67452 3.51226 6.76077L3.02675 8.00903L2.542 8.73626C2.46524 8.85102 2.49624 9.00653 2.61126 9.08302C2.654 9.11153 2.70226 9.12503 2.74975 9.12503C2.83049 9.12503 2.91 9.08604 2.95799 9.01379L3.458 8.26379L3.95874 6.98053C4.58376 7.38052 5.00001 8.07951 5.00001 8.87501ZM11.8225 8.62502H10.0147C10.0867 7.97803 10.4347 7.41427 10.9372 7.05128L11.8225 8.62502ZM8.00001 7.87502C7.74899 7.87502 7.52227 7.97103 7.34651 8.12428L4.52276 5.53578L4.68302 5.12504H9.65077L8.09827 7.88504C8.06549 7.88176 8.03376 7.87502 8.00001 7.87502ZM8.96449 8.62502C8.90423 8.39302 8.76475 8.19327 8.57399 8.05851L10.039 5.45425L10.6905 6.6125C10.0367 7.06449 9.58825 7.79126 9.51272 8.62499H8.96449V8.62502ZM12.25 11.125C11.0937 11.125 10.1395 10.2483 10.0147 9.125H12.25C12.3387 9.125 12.421 9.07801 12.4657 9.00125C12.5105 8.9245 12.5115 8.82975 12.4677 8.75249L11.3715 6.80375C11.6417 6.68876 11.9385 6.62501 12.25 6.62501C13.4907 6.62501 14.5 7.63452 14.5 8.87501C14.5 10.1155 13.4907 11.125 12.25 11.125Z" fill="#F1F1F1"/>
</g>
<defs>
<clipPath id="clip0_232_11">
<rect width="15" height="15" fill="white"/>
</clipPath>
</defs>
</svg>
