<svg width="26" height="22" viewBox="0 0 26 22" fill="none" xmlns="http://www.w3.org/2000/svg">
<path fill-rule="evenodd" clip-rule="evenodd" d="M24.8333 3.75C24.8333 2.23122 23.3783 1 21.5833 1H4.25C2.45508 1 1 2.23122 1 3.75V18.4167C1 19.9355 2.45508 21.1667 4.25 21.1667H21.5833C23.3783 21.1667 24.8333 19.9355 24.8333 18.4167V3.75ZM22.6667 3.75C22.6667 3.24374 22.1817 2.83333 21.5833 2.83333H4.25C3.6517 2.83333 3.16667 3.24374 3.16667 3.75V18.4167C3.16667 18.9229 3.6517 19.3333 4.25 19.3333H21.5833C22.1817 19.3333 22.6667 18.9229 22.6667 18.4167V3.75Z" fill="#FF4848"/>
<path d="M7 16L19 6M7 6L18.9992 16.0009" stroke="#FF4848" stroke-linecap="round"/>
</svg>
