<svg width="15" height="15" viewBox="0 0 15 15" fill="none" xmlns="http://www.w3.org/2000/svg">
<path d="M12.6404 1.99801C11.7695 1.84801 10.8723 1.97005 10.0015 2.05593C9.13399 2.14152 8.22814 2.24626 7.36861 2.0428C6.35654 1.80325 5.71628 1.13983 5.24415 0.240967C5.11397 0.593169 4.98382 0.945337 4.85367 1.29757C4.00212 3.60167 3.15059 5.90577 2.29907 8.20987L0 14.4309L0.887882 14.759L2.95693 9.16051C3.34092 9.57018 3.815 9.86766 4.4236 10.0117C5.28306 10.215 6.189 10.1105 7.05647 10.0249C7.92715 9.93882 8.82446 9.81688 9.69534 9.96691C10.8144 10.1597 11.5375 10.8299 12.0549 11.8153C13.0367 9.15902 14.0183 6.50272 15 3.84639C14.4825 2.86098 13.7596 2.19081 12.6404 1.99801ZM12.7495 6.72739C12.3117 6.35788 11.8417 6.11079 11.275 6.00184C11.0859 6.51324 10.8969 7.02464 10.7079 7.53604C11.2747 7.64504 11.7446 7.89214 12.1825 8.26161C12.0092 8.7306 11.8358 9.19961 11.6625 9.6685C11.2247 9.29903 10.7546 9.05177 10.1879 8.94299C10.3612 8.47397 10.5346 8.00499 10.7079 7.53604C10.1309 7.44297 9.56744 7.4435 8.98521 7.47913C8.81192 7.94812 8.63854 8.41714 8.46525 8.88609C7.86281 8.93475 7.26241 9.00386 6.66001 9.05243C6.83329 8.58338 7.00665 8.11443 7.17994 7.64554C6.59771 7.6812 6.03424 7.6818 5.45721 7.58867C5.28389 8.05766 5.11056 8.52664 4.93724 8.99556C4.3706 8.88672 3.90039 8.63949 3.46267 8.26995C3.63595 7.80103 3.80931 7.33201 3.9826 6.86309C4.42049 7.23263 4.89046 7.47976 5.45721 7.58867C5.64618 7.07727 5.83525 6.56581 6.02422 6.05441C5.4575 5.94574 4.98746 5.69824 4.54961 5.3289C4.73864 4.81744 4.92765 4.30598 5.11665 3.79458C5.55454 4.16421 6.02451 4.41108 6.59123 4.52019C6.76455 4.0512 6.93787 3.58225 7.11119 3.11333C7.68823 3.2064 8.25176 3.20587 8.83392 3.17014C8.66064 3.63909 8.48728 4.10807 8.31396 4.57702C8.91637 4.52836 9.51676 4.45932 10.1192 4.41068C10.2925 3.94173 10.4659 3.47275 10.6392 3.00376C11.2215 2.9681 11.7848 2.96754 12.3619 3.06063C12.1885 3.52962 12.0152 3.99857 11.8419 4.46759C12.4086 4.57656 12.8786 4.82359 13.3165 5.1931C13.1275 5.70453 12.9386 6.21599 12.7495 6.72739Z" fill="#7D0000"/>
<path d="M7.74697 6.11129C7.55797 6.62272 7.36897 7.13411 7.17993 7.64554C7.78237 7.59685 8.3828 7.52777 8.98521 7.47914C9.17421 6.96777 9.36321 6.45634 9.55222 5.94495C8.94974 5.99361 8.34938 6.06269 7.74697 6.11129Z" fill="#7D0000"/>
<path d="M7.74693 6.11132C7.93597 5.59993 8.12497 5.08846 8.31398 4.5771C7.73158 4.61266 7.16835 4.61326 6.59118 4.52026C6.40218 5.03166 6.21317 5.54309 6.02417 6.05449C6.60124 6.14765 7.16464 6.14709 7.74693 6.11132Z" fill="#7D0000"/>
<path d="M10.1192 4.41069C9.93019 4.92208 9.74119 5.43348 9.55219 5.94491C10.1345 5.90935 10.6978 5.90875 11.2749 6.00181C11.4639 5.49042 11.6529 4.97899 11.8419 4.46759C11.2649 4.37449 10.7015 4.37496 10.1192 4.41069Z" fill="#7D0000"/>
</svg>
