<svg width="50" height="50" viewBox="0 0 50 50" fill="none" xmlns="http://www.w3.org/2000/svg">
  <path d="M38 8L25.1469 19.5536L12 8V8.00312L12.0159 8.01874V24.1968L24.9988 36L38 24.6525V8Z" fill="#EA4335" />
  <path d="M41.4958 4.98264L38 7.87299V25L49 15.3399V9.52049C49 9.52049 47.6649 1.20909 41.4958 4.98264Z"
    fill="#FBBC05" />
  <path d="M38 25.0921V46H46.4289C46.4289 46 48.8275 45.7341 49 42.7899V16L38 25.0921Z" fill="#34A853" />
  <path d="M15.5439 37.5001V23.5518L15.5319 23.542L15.5439 37.5001Z" fill="#C5221F" />
  <path d="M12 7.76386L8.51822 4.95913C2.33998 1.27693 1 9.38403 1 9.38403V15.0623L12 24V7.76386Z" fill="#C5221F" />
  <path d="M15.5319 13.3193V23.5423L15.5439 23.5521V13.3292L15.5319 13.3193Z" fill="#C5221F" />
  <path d="M1 16V42.7897C1.16995 45.7369 3.57115 46 3.57115 46H12L11.9808 24.6176L1 16Z" fill="#4285F4" />
</svg>