<svg width="26" height="22" viewBox="0 0 26 22" fill="none" xmlns="http://www.w3.org/2000/svg">
<path fill-rule="evenodd" clip-rule="evenodd" d="M24.9167 3.66675C24.9167 2.14797 23.4617 0.916748 21.6667 0.916748H4.33337C2.53845 0.916748 1.08337 2.14797 1.08337 3.66675V18.3334C1.08337 19.8522 2.53845 21.0834 4.33337 21.0834H21.6667C23.4617 21.0834 24.9167 19.8522 24.9167 18.3334V3.66675ZM22.75 3.66675C22.75 3.16049 22.265 2.75008 21.6667 2.75008H4.33337C3.73507 2.75008 3.25004 3.16049 3.25004 3.66675V18.3334C3.25004 18.8397 3.73507 19.2501 4.33337 19.2501H21.6667C22.265 19.2501 22.75 18.8397 22.75 18.3334V3.66675Z" fill="#F1F1F1"/>
<path d="M9.55319 10.8263V13.9098C9.44733 14.0559 9.28386 14.2144 9.06279 14.3854C8.84172 14.5529 8.55682 14.6972 8.2081 14.8183C7.85937 14.9394 7.43747 15 6.9424 15C6.50337 15 6.10327 14.9181 5.74209 14.7542C5.3809 14.5867 5.06954 14.3427 4.80799 14.022C4.54956 13.7014 4.35029 13.3095 4.21017 12.8464C4.07006 12.3796 4 11.847 4 11.2485V10.7622C4 10.1637 4.06694 9.63104 4.20083 9.16433C4.33783 8.69762 4.53243 8.30394 4.78464 7.9833C5.03684 7.66266 5.33731 7.41861 5.68604 7.25117C6.03477 7.08372 6.42242 7 6.84899 7C7.44058 7 7.92631 7.11044 8.30618 7.33133C8.68604 7.54865 8.97561 7.85148 9.17488 8.23981C9.37727 8.62458 9.50182 9.06635 9.54852 9.56513H8.18941C8.15516 9.30149 8.08978 9.0717 7.99325 8.87575C7.89673 8.6798 7.75817 8.52661 7.57758 8.41617C7.4001 8.30572 7.16969 8.2505 6.88635 8.2505C6.65283 8.2505 6.44421 8.30572 6.26051 8.41617C6.07992 8.52305 5.92735 8.68159 5.8028 8.89178C5.67826 9.10198 5.58329 9.36206 5.5179 9.67201C5.45252 9.98196 5.41982 10.3418 5.41982 10.7515V11.2485C5.41982 11.6546 5.45407 12.0145 5.52257 12.328C5.59107 12.6379 5.69227 12.8998 5.82615 13.1136C5.96316 13.3238 6.13129 13.4823 6.33057 13.5892C6.52984 13.6961 6.76181 13.7495 7.02647 13.7495C7.24754 13.7495 7.43124 13.7281 7.57758 13.6854C7.72704 13.6426 7.84691 13.591 7.93721 13.5304C8.03062 13.4663 8.10223 13.4057 8.15205 13.3487V11.9699H6.87234V10.8263H9.55319Z" fill="white"/>
<path d="M13.3316 12.1196H11.5989V10.8691H13.3316C13.5994 10.8691 13.8173 10.8192 13.9855 10.7194C14.1536 10.6161 14.2766 10.4736 14.3544 10.2919C14.4323 10.1102 14.4712 9.90537 14.4712 9.67735C14.4712 9.44578 14.4323 9.23024 14.3544 9.03073C14.2766 8.83122 14.1536 8.6709 13.9855 8.54977C13.8173 8.42863 13.5994 8.36807 13.3316 8.36807H12.0846V14.8931H10.6834V7.11222H13.3316C13.864 7.11222 14.3202 7.22267 14.7001 7.44355C15.083 7.66088 15.3757 7.96192 15.5781 8.34669C15.7805 8.73146 15.8817 9.17145 15.8817 9.66667C15.8817 10.169 15.7805 10.6037 15.5781 10.9706C15.3757 11.3376 15.083 11.6208 14.7001 11.8203C14.3202 12.0198 13.864 12.1196 13.3316 12.1196Z" fill="white"/>
<path d="M17.7872 7.11222L19.0669 9.82699L20.3467 7.11222H21.9486L19.973 10.9706L22 14.8931H20.384L19.0669 12.1249L17.7499 14.8931H16.1245L18.1562 10.9706L16.1759 7.11222H17.7872Z" fill="white"/>
</svg>
