<svg width="20" height="13" viewBox="0 0 20 13" fill="none" xmlns="http://www.w3.org/2000/svg">
<path d="M17.674 12.81H5.73698H0.700219C0.313349 12.81 6.18398e-07 12.5709 6.18398e-07 12.2757V4.42795C6.18398e-07 4.13275 0.313349 3.89366 0.700219 3.89366H5.73698C5.7895 3.89366 5.84026 3.89833 5.88928 3.90668L10.0993 0.568354C10.4972 0.206705 11.0779 0 11.6972 0H12.0144C13.1659 0 14.1024 0.714617 14.1024 1.59319V3.89399H17.674C18.9567 3.89399 20 4.69009 20 5.66884V11.0355C20 12.0136 18.9567 12.81 17.674 12.81ZM5.03676 4.96224H1.40044V11.7414H5.03676V4.96224V4.96224ZM18.5996 5.66851C18.5996 5.27914 18.1842 4.96224 17.674 4.96224H13.4018C13.0149 4.96224 12.7015 4.72315 12.7015 4.42795V1.59286C12.7015 1.30367 12.393 1.06825 12.014 1.06825H11.6967C11.4897 1.06825 11.2954 1.13871 11.1641 1.2616C11.1519 1.27295 11.1392 1.28397 11.1256 1.29466L6.43676 5.01267V11.7411H17.674C18.1842 11.7411 18.5996 11.4242 18.5996 11.0348V5.66851V5.66851Z" fill="#F1F1F1"/>
</svg>
