<svg width="26" height="22" viewBox="0 0 26 22" fill="none" xmlns="http://www.w3.org/2000/svg">
<path fill-rule="evenodd" clip-rule="evenodd" d="M24.9167 3.66675C24.9167 2.14797 23.4617 0.916748 21.6667 0.916748H4.33337C2.53845 0.916748 1.08337 2.14797 1.08337 3.66675V18.3334C1.08337 19.8522 2.53845 21.0834 4.33337 21.0834H21.6667C23.4617 21.0834 24.9167 19.8522 24.9167 18.3334V3.66675ZM22.75 3.66675C22.75 3.16049 22.265 2.75008 21.6667 2.75008H4.33337C3.73507 2.75008 3.25004 3.16049 3.25004 3.66675V18.3334C3.25004 18.8397 3.73507 19.2501 4.33337 19.2501H21.6667C22.265 19.2501 22.75 18.8397 22.75 18.3334V3.66675Z" fill="#F1F1F1"/>
<path fill-rule="evenodd" clip-rule="evenodd" d="M17.5841 15.5833H14.4829V14.0851H17.5841C19.02 14.0851 20.184 12.909 20.184 11.4583C20.184 10.0075 19.02 8.83143 17.5841 8.83143H14.4829V7.33325H17.5841C19.8389 7.33325 21.6668 9.18008 21.6668 11.4583C21.6668 13.7364 19.8389 15.5833 17.5841 15.5833Z" fill="#F1F1F1"/>
<path fill-rule="evenodd" clip-rule="evenodd" d="M8.41602 7.33325L11.5173 7.33326V8.83144L8.41602 8.83143C6.98016 8.83143 5.81617 10.0075 5.81617 11.4582C5.81617 12.909 6.98016 14.0851 8.41602 14.0851H11.5173V15.5832H8.41602C6.16124 15.5832 4.33337 13.7364 4.33337 11.4582C4.33337 9.18008 6.16124 7.33325 8.41602 7.33325Z" fill="#F1F1F1"/>
<path fill-rule="evenodd" clip-rule="evenodd" d="M8.55164 10.709H17.4484V12.2072H8.55164V10.709Z" fill="#F1F1F1"/>
</svg>
