<svg width="160" height="41" viewBox="0 0 160 41" fill="none" xmlns="http://www.w3.org/2000/svg">
<path d="M5.809 31C5.63633 31 5.35267 31.0123 4.958 31.037C4.56333 31.0617 4.15633 31.0863 3.737 31.111C3.31767 31.1357 2.91067 31.1603 2.516 31.185C2.12133 31.2097 1.83767 31.222 1.665 31.222L1.591 31.074L1.702 30.408L1.887 30.26C2.183 30.26 2.52833 30.2477 2.923 30.223C3.31767 30.1737 3.626 30.075 3.848 29.927C4.04533 29.779 4.23033 29.5447 4.403 29.224C4.57567 28.9033 4.699 28.4223 4.773 27.781C4.79767 27.411 4.81 26.856 4.81 26.116C4.83467 25.376 4.847 24.2783 4.847 22.823V13.573C4.847 13.0797 4.847 12.5247 4.847 11.908C4.847 11.2667 4.82233 10.6377 4.773 10.021C4.72367 9.355 4.60033 8.874 4.403 8.578C4.23033 8.282 4.04533 8.06 3.848 7.912C3.626 7.78867 3.39167 7.70233 3.145 7.653C2.923 7.579 2.50367 7.542 1.887 7.542L1.702 7.394L1.591 6.728L1.665 6.58C1.83767 6.58 2.05967 6.59233 2.331 6.617C2.627 6.64166 2.923 6.66633 3.219 6.691C3.53967 6.71567 3.86033 6.74033 4.181 6.765C4.50167 6.78967 4.79767 6.802 5.069 6.802H6.401C6.67233 6.802 6.98067 6.802 7.326 6.802C7.67133 6.802 8.01667 6.802 8.362 6.802C8.732 6.77733 9.065 6.765 9.361 6.765C9.657 6.765 9.89133 6.765 10.064 6.765C12.728 6.765 14.6397 7.283 15.799 8.319C16.9583 9.33033 17.538 10.6747 17.538 12.352C17.538 13.092 17.4393 13.7457 17.242 14.313C17.0693 14.8803 16.8227 15.386 16.502 15.83C16.1813 16.2493 15.8237 16.6193 15.429 16.94C15.0343 17.236 14.615 17.495 14.171 17.717C15.9717 18.0377 17.353 18.716 18.315 19.752C19.3017 20.788 19.795 22.2187 19.795 24.044C19.795 25.2773 19.573 26.338 19.129 27.226C18.685 28.0893 18.056 28.8047 17.242 29.372C16.4527 29.9147 15.503 30.3217 14.393 30.593C13.283 30.8643 12.062 31 10.73 31H5.809ZM7.474 18.716C7.474 19.4067 7.474 20.2207 7.474 21.158C7.474 22.0953 7.474 23.0203 7.474 23.933C7.49867 24.821 7.511 25.6227 7.511 26.338C7.53567 27.0533 7.56033 27.5343 7.585 27.781C7.63433 28.447 7.77 28.854 7.992 29.002C8.214 29.15 8.51 29.224 8.88 29.224H11.137C11.729 29.224 12.3703 29.15 13.061 29.002C13.7763 28.854 14.4423 28.595 15.059 28.225C15.6757 27.855 16.1937 27.337 16.613 26.671C17.0323 26.005 17.242 25.154 17.242 24.118C17.242 23.23 17.0817 22.453 16.761 21.787C16.4403 21.0963 15.9963 20.529 15.429 20.085C14.8617 19.641 14.1957 19.308 13.431 19.086C12.691 18.8393 11.877 18.716 10.989 18.716H7.474ZM9.213 17.347C10.0023 17.347 10.7547 17.2977 11.47 17.199C12.1853 17.1003 12.8267 16.8413 13.394 16.422C13.9367 16.0767 14.3807 15.5833 14.726 14.942C15.0713 14.276 15.244 13.499 15.244 12.611C15.244 11.3037 14.874 10.3047 14.134 9.614C13.394 8.92333 12.3457 8.578 10.989 8.578H7.659C7.60967 9.29333 7.57267 9.89767 7.548 10.391C7.548 10.8843 7.53567 11.316 7.511 11.686C7.48633 12.056 7.474 12.389 7.474 12.685C7.474 12.981 7.474 13.2647 7.474 13.536V15.83C7.474 16.3973 7.49867 16.792 7.548 17.014C7.59733 17.236 7.78233 17.347 8.103 17.347H9.213Z" fill="#F1F1F1"/>
<path d="M31.27 11.47L31.23 11.44C31.23 11.2867 31.1833 11.1633 31.09 11.07C31.0033 10.97 30.8967 10.8933 30.77 10.84C30.6433 10.7867 30.5067 10.75 30.36 10.73C30.22 10.71 30.0967 10.7 29.99 10.7C29.6833 10.7 29.4167 10.7567 29.19 10.87C28.97 10.9767 28.7867 11.1233 28.64 11.31C28.4933 11.49 28.3833 11.7 28.31 11.94C28.2433 12.1733 28.21 12.4133 28.21 12.66C28.21 12.9133 28.2467 13.1567 28.32 13.39C28.4 13.6233 28.52 13.83 28.68 14.01C28.84 14.19 29.04 14.3333 29.28 14.44C29.52 14.5467 29.8067 14.6 30.14 14.6C30.3667 14.6 30.6167 14.5667 30.89 14.5C31.17 14.4267 31.41 14.3367 31.61 14.23L31.71 14.33L31.56 14.61C31.4867 14.6633 31.39 14.72 31.27 14.78C31.1567 14.8333 31.0267 14.8867 30.88 14.94C30.7333 14.9867 30.5733 15.0267 30.4 15.06C30.2333 15.0933 30.0667 15.11 29.9 15.11C29.5733 15.11 29.26 15.0533 28.96 14.94C28.6667 14.82 28.4067 14.6567 28.18 14.45C27.96 14.2367 27.7833 13.9833 27.65 13.69C27.5167 13.39 27.45 13.06 27.45 12.7C27.45 12.3333 27.5167 12 27.65 11.7C27.7833 11.4 27.9667 11.1433 28.2 10.93C28.4333 10.7167 28.7033 10.55 29.01 10.43C29.3233 10.31 29.6567 10.25 30.01 10.25C30.33 10.25 30.63 10.29 30.91 10.37C31.1967 10.45 31.4133 10.53 31.56 10.61L31.59 10.7L31.48 11.47H31.27ZM32.7979 17.29C32.8912 17.29 32.9779 17.2867 33.0579 17.28C33.1446 17.2733 33.2279 17.2567 33.3079 17.23C33.3879 17.21 33.4646 17.1733 33.5379 17.12C33.6179 17.0667 33.7046 16.9933 33.7979 16.9C33.9246 16.7667 34.0346 16.6233 34.1279 16.47C34.2212 16.3233 34.2979 16.1733 34.3579 16.02L34.6779 15.21L33.9879 13.4C33.9612 13.34 33.9146 13.23 33.8479 13.07C33.7879 12.91 33.7179 12.7333 33.6379 12.54C33.5579 12.34 33.4746 12.1367 33.3879 11.93C33.3079 11.7233 33.2379 11.54 33.1779 11.38C33.1112 11.22 33.0512 11.0933 32.9979 11C32.9312 10.8933 32.8546 10.81 32.7679 10.75C32.6879 10.69 32.5779 10.6533 32.4379 10.64L32.3779 10.59V10.45L32.4179 10.41C32.5312 10.4233 32.6512 10.4367 32.7779 10.45C32.9046 10.4633 33.0212 10.47 33.1279 10.47H33.5179C33.6246 10.47 33.7512 10.4633 33.8979 10.45C34.0512 10.4367 34.1946 10.4233 34.3279 10.41L34.3679 10.45V10.57L34.3279 10.61C34.1812 10.6233 34.0579 10.6633 33.9579 10.73C33.8646 10.79 33.8179 10.88 33.8179 11C33.8179 11.08 33.8479 11.2233 33.9079 11.43C33.9746 11.63 34.0479 11.8467 34.1279 12.08C34.2079 12.3067 34.2846 12.52 34.3579 12.72C34.4312 12.92 34.4812 13.05 34.5079 13.11L35.0079 14.41L35.4779 13.26C35.5246 13.1467 35.5879 12.9933 35.6679 12.8C35.7479 12.6067 35.8279 12.4 35.9079 12.18C35.9879 11.96 36.0546 11.7467 36.1079 11.54C36.1679 11.3267 36.1979 11.1467 36.1979 11C36.1979 10.8533 36.1446 10.7567 36.0379 10.71C35.9312 10.6567 35.8112 10.6233 35.6779 10.61L35.6379 10.57V10.45L35.6779 10.41C35.9379 10.45 36.1812 10.47 36.4079 10.47H36.8179C36.9312 10.47 37.0379 10.4633 37.1379 10.45C37.2446 10.4367 37.3612 10.4233 37.4879 10.41L37.5279 10.45V10.59L37.4779 10.64C37.3579 10.6533 37.2646 10.6867 37.1979 10.74C37.1379 10.7933 37.0712 10.88 36.9979 11C36.9379 11.1067 36.8679 11.24 36.7879 11.4C36.7146 11.56 36.6379 11.7333 36.5579 11.92C36.4846 12.1067 36.4079 12.2967 36.3279 12.49C36.2546 12.6833 36.1846 12.8633 36.1179 13.03C36.0579 13.1967 36.0046 13.3433 35.9579 13.47C35.9179 13.59 35.8879 13.6733 35.8679 13.72L34.8879 16.16C34.7146 16.5933 34.4779 16.9133 34.1779 17.12C33.8846 17.3333 33.5646 17.4833 33.2179 17.57C33.1512 17.5833 33.0912 17.59 33.0379 17.59C32.9846 17.5967 32.9246 17.6 32.8579 17.6L32.7779 17.58L32.7579 17.34L32.7979 17.29ZM42.036 11.47L41.996 11.44C41.996 11.2867 41.9493 11.1633 41.856 11.07C41.7693 10.97 41.6627 10.8933 41.536 10.84C41.4093 10.7867 41.2727 10.75 41.126 10.73C40.986 10.71 40.8627 10.7 40.756 10.7C40.4493 10.7 40.1827 10.7567 39.956 10.87C39.736 10.9767 39.5527 11.1233 39.406 11.31C39.2593 11.49 39.1493 11.7 39.076 11.94C39.0093 12.1733 38.976 12.4133 38.976 12.66C38.976 12.9133 39.0127 13.1567 39.086 13.39C39.166 13.6233 39.286 13.83 39.446 14.01C39.606 14.19 39.806 14.3333 40.046 14.44C40.286 14.5467 40.5727 14.6 40.906 14.6C41.1327 14.6 41.3827 14.5667 41.656 14.5C41.936 14.4267 42.176 14.3367 42.376 14.23L42.476 14.33L42.326 14.61C42.2527 14.6633 42.156 14.72 42.036 14.78C41.9227 14.8333 41.7927 14.8867 41.646 14.94C41.4993 14.9867 41.3393 15.0267 41.166 15.06C40.9993 15.0933 40.8327 15.11 40.666 15.11C40.3393 15.11 40.026 15.0533 39.726 14.94C39.4327 14.82 39.1727 14.6567 38.946 14.45C38.726 14.2367 38.5493 13.9833 38.416 13.69C38.2827 13.39 38.216 13.06 38.216 12.7C38.216 12.3333 38.2827 12 38.416 11.7C38.5493 11.4 38.7327 11.1433 38.966 10.93C39.1993 10.7167 39.4693 10.55 39.776 10.43C40.0893 10.31 40.4227 10.25 40.776 10.25C41.096 10.25 41.396 10.29 41.676 10.37C41.9627 10.45 42.1793 10.53 42.326 10.61L42.356 10.7L42.246 11.47H42.036ZM43.4139 7.73L43.4539 7.69H43.6339C43.7472 7.69 43.8906 7.69 44.0639 7.69C44.2372 7.68333 44.3872 7.67 44.5139 7.65L44.8739 7.6L44.9339 7.69C44.9206 7.71667 44.9106 7.76667 44.9039 7.84C44.8972 7.90667 44.8906 7.98 44.8839 8.06C44.8772 8.14 44.8706 8.21667 44.8639 8.29C44.8639 8.36333 44.8639 8.42 44.8639 8.46C44.8572 8.56667 44.8506 8.66667 44.8439 8.76C44.8439 8.85333 44.8406 8.96333 44.8339 9.09C44.8339 9.21667 44.8339 9.37 44.8339 9.55C44.8339 9.73 44.8339 9.96 44.8339 10.24V12.42C44.8339 12.7 44.8339 12.93 44.8339 13.11C44.8406 13.29 44.8439 13.4433 44.8439 13.57C44.8506 13.6967 44.8539 13.8067 44.8539 13.9C44.8606 13.9933 44.8672 14.1 44.8739 14.22C44.8872 14.36 44.9006 14.4667 44.9139 14.54C44.9339 14.6067 44.9706 14.6633 45.0239 14.71C45.0772 14.7567 45.1506 14.7867 45.2439 14.8C45.3439 14.8133 45.4439 14.82 45.5439 14.82L45.5939 14.87L45.6139 15L45.5939 15.04C45.5472 15.04 45.4772 15.0367 45.3839 15.03C45.2906 15.0233 45.1906 15.0167 45.0839 15.01C44.9772 15.01 44.8772 15.0067 44.7839 15C44.6906 15 44.6206 15 44.5739 15H44.4339C44.3872 15 44.3139 15 44.2139 15C44.1206 15.0067 44.0206 15.01 43.9139 15.01C43.8139 15.0167 43.7139 15.0233 43.6139 15.03C43.5206 15.0367 43.4506 15.04 43.4039 15.04L43.3939 15L43.4039 14.86L43.4439 14.82C43.5506 14.82 43.6539 14.8167 43.7539 14.81C43.8606 14.7967 43.9406 14.7633 43.9939 14.71C44.0472 14.6633 44.0806 14.6033 44.0939 14.53C44.1139 14.4567 44.1306 14.3533 44.1439 14.22C44.1506 14.1333 44.1539 14.0467 44.1539 13.96C44.1606 13.8733 44.1639 13.7733 44.1639 13.66C44.1706 13.54 44.1739 13.4033 44.1739 13.25C44.1739 13.09 44.1739 12.8933 44.1739 12.66V10.26C44.1739 9.98667 44.1739 9.75667 44.1739 9.57C44.1739 9.37667 44.1706 9.21 44.1639 9.07C44.1639 8.93 44.1606 8.80667 44.1539 8.7C44.1539 8.59333 44.1506 8.48667 44.1439 8.38C44.1372 8.30667 44.1172 8.24333 44.0839 8.19C44.0572 8.13667 44.0339 8.09667 44.0139 8.07C43.9472 7.99667 43.8639 7.95 43.7639 7.93C43.6639 7.91 43.5606 7.9 43.4539 7.9L43.4139 7.86V7.73ZM48.6692 15.04C48.6226 15.04 48.5526 15.0367 48.4592 15.03C48.3659 15.0233 48.2659 15.0167 48.1592 15.01C48.0526 15.01 47.9526 15.0067 47.8592 15C47.7659 15 47.6959 15 47.6492 15H47.5092C47.4626 15 47.3892 15 47.2892 15C47.1959 15.0067 47.0959 15.01 46.9892 15.01C46.8892 15.0167 46.7892 15.0233 46.6892 15.03C46.5959 15.0367 46.5259 15.04 46.4792 15.04L46.4692 15L46.4792 14.86L46.5192 14.82C46.6259 14.82 46.7292 14.8167 46.8292 14.81C46.9359 14.7967 47.0159 14.7633 47.0692 14.71C47.1226 14.6633 47.1559 14.6033 47.1692 14.53C47.1892 14.4567 47.2059 14.3533 47.2192 14.22C47.2259 14.1133 47.2326 14.0067 47.2392 13.9C47.2459 13.7867 47.2492 13.61 47.2492 13.37V12.14C47.2492 12 47.2492 11.8833 47.2492 11.79C47.2492 11.69 47.2459 11.6033 47.2392 11.53C47.2392 11.4567 47.2359 11.39 47.2292 11.33C47.2292 11.27 47.2259 11.2067 47.2192 11.14C47.2059 11.0667 47.1859 11.0033 47.1592 10.95C47.1326 10.89 47.1092 10.85 47.0892 10.83C47.0226 10.75 46.9392 10.7033 46.8392 10.69C46.7392 10.67 46.6359 10.66 46.5292 10.66L46.4892 10.62V10.48L46.5292 10.45H46.7092C46.8226 10.45 46.9659 10.45 47.1392 10.45C47.3126 10.4433 47.4626 10.43 47.5892 10.41L47.9392 10.36L47.9992 10.45C47.9859 10.4767 47.9726 10.5233 47.9592 10.59C47.9526 10.6567 47.9459 10.73 47.9392 10.81C47.9392 10.8833 47.9359 10.9567 47.9292 11.03C47.9292 11.1033 47.9292 11.16 47.9292 11.2C47.9292 11.2533 47.9259 11.3067 47.9192 11.36C47.9192 11.4067 47.9192 11.4633 47.9192 11.53C47.9192 11.5967 47.9159 11.6767 47.9092 11.77C47.9092 11.8633 47.9092 11.9833 47.9092 12.13V13.25C47.9092 13.3967 47.9092 13.5167 47.9092 13.61C47.9159 13.7033 47.9192 13.7833 47.9192 13.85C47.9259 13.9167 47.9292 13.98 47.9292 14.04C47.9359 14.0933 47.9426 14.1533 47.9492 14.22C47.9626 14.36 47.9759 14.4667 47.9892 14.54C48.0092 14.6067 48.0459 14.6633 48.0992 14.71C48.1526 14.7567 48.2259 14.7867 48.3192 14.8C48.4192 14.8133 48.5192 14.82 48.6192 14.82L48.6692 14.87L48.6892 15L48.6692 15.04ZM46.9892 8.69C46.9892 8.55667 47.0326 8.44333 47.1192 8.35C47.2126 8.25 47.3259 8.2 47.4592 8.2C47.5926 8.2 47.7059 8.25 47.7992 8.35C47.8992 8.44333 47.9492 8.55667 47.9492 8.69C47.9492 8.82333 47.8992 8.93667 47.7992 9.03C47.7059 9.11667 47.5926 9.16 47.4592 9.16C47.3259 9.16 47.2126 9.11667 47.1192 9.03C47.0326 8.93667 46.9892 8.82333 46.9892 8.69ZM50.9929 11.26C51.1662 10.9733 51.3896 10.7333 51.6629 10.54C51.9362 10.3467 52.2762 10.25 52.6829 10.25C52.8696 10.25 53.0562 10.2767 53.2429 10.33C53.4296 10.3833 53.5996 10.4667 53.7529 10.58C53.9129 10.6933 54.0429 10.84 54.1429 11.02C54.2496 11.1933 54.3196 11.4 54.3529 11.64C54.3729 11.8133 54.3829 11.9967 54.3829 12.19C54.3896 12.3833 54.3929 12.5767 54.3929 12.77C54.3929 13.01 54.3929 13.2533 54.3929 13.5C54.3996 13.74 54.4029 13.98 54.4029 14.22C54.4162 14.3733 54.4329 14.4867 54.4529 14.56C54.4729 14.6267 54.5029 14.6767 54.5429 14.71C54.6029 14.7633 54.6829 14.7967 54.7829 14.81C54.8896 14.8167 54.9962 14.82 55.1029 14.82L55.1329 14.86L55.1529 15L55.1329 15.04C55.0196 15.0267 54.8929 15.0167 54.7529 15.01C54.6129 15.0033 54.4762 15 54.3429 15C54.0896 15 53.8596 15.01 53.6529 15.03L53.5829 14.93C53.6096 14.8433 53.6296 14.73 53.6429 14.59C53.6562 14.45 53.6662 14.3267 53.6729 14.22C53.6862 13.94 53.6962 13.6667 53.7029 13.4C53.7096 13.1267 53.7129 12.9 53.7129 12.72C53.7129 12.5667 53.7062 12.4 53.6929 12.22C53.6862 12.04 53.6662 11.8833 53.6329 11.75C53.5662 11.4367 53.4296 11.2033 53.2229 11.05C53.0162 10.8967 52.7762 10.82 52.5029 10.82C52.2829 10.82 52.0762 10.8667 51.8829 10.96C51.6962 11.0533 51.5362 11.17 51.4029 11.31C51.2696 11.4433 51.1629 11.5867 51.0829 11.74C51.0096 11.8867 50.9729 12.0133 50.9729 12.12V13.25C50.9729 13.3967 50.9729 13.5167 50.9729 13.61C50.9729 13.7033 50.9729 13.7833 50.9729 13.85C50.9796 13.9167 50.9862 13.98 50.9929 14.04C50.9996 14.0933 51.0062 14.1533 51.0129 14.22C51.0262 14.36 51.0396 14.4667 51.0529 14.54C51.0729 14.6067 51.1096 14.6633 51.1629 14.71C51.2162 14.7567 51.2896 14.7867 51.3829 14.8C51.4829 14.8133 51.5829 14.82 51.6829 14.82L51.7329 14.87L51.7529 15L51.7329 15.04C51.6862 15.04 51.6162 15.0367 51.5229 15.03C51.4296 15.0233 51.3296 15.0167 51.2229 15.01C51.1162 15.01 51.0162 15.0067 50.9229 15C50.8296 15 50.7596 15 50.7129 15H50.5729C50.5262 15 50.4529 15 50.3529 15C50.2596 15.0067 50.1596 15.01 50.0529 15.01C49.9529 15.0167 49.8529 15.0233 49.7529 15.03C49.6596 15.0367 49.5896 15.04 49.5429 15.04L49.5329 15L49.5429 14.86L49.5829 14.82C49.6896 14.82 49.7929 14.8167 49.8929 14.81C49.9996 14.7967 50.0796 14.7633 50.1329 14.71C50.1862 14.6633 50.2196 14.6033 50.2329 14.53C50.2529 14.4567 50.2696 14.3533 50.2829 14.22C50.2896 14.1133 50.2962 14.0067 50.3029 13.9C50.3096 13.7867 50.3129 13.61 50.3129 13.37V12.14C50.3129 12 50.3129 11.8833 50.3129 11.79C50.3129 11.69 50.3096 11.6033 50.3029 11.53C50.3029 11.4567 50.2996 11.39 50.2929 11.33C50.2929 11.27 50.2896 11.2067 50.2829 11.14C50.2696 11.0667 50.2496 11.0033 50.2229 10.95C50.1962 10.89 50.1729 10.85 50.1529 10.83C50.0862 10.75 50.0029 10.7033 49.9029 10.69C49.8029 10.67 49.6996 10.66 49.5929 10.66L49.5529 10.62V10.48L49.5929 10.45H49.7729C49.8862 10.45 50.0296 10.45 50.2029 10.45C50.3762 10.4433 50.5262 10.43 50.6529 10.41L51.0029 10.36L51.0629 10.45C51.0296 10.5367 51.0062 10.6567 50.9929 10.81C50.9796 10.9567 50.9696 11.1 50.9629 11.24L50.9929 11.26ZM57.1166 13.64C56.7566 13.5067 56.4966 13.2967 56.3366 13.01C56.1766 12.7233 56.0966 12.4067 56.0966 12.06C56.0966 11.8133 56.14 11.58 56.2266 11.36C56.3133 11.14 56.4366 10.95 56.5966 10.79C56.7633 10.6233 56.96 10.4933 57.1866 10.4C57.42 10.3067 57.6833 10.26 57.9766 10.26C58.15 10.26 58.32 10.2767 58.4866 10.31C58.66 10.3433 58.81 10.39 58.9366 10.45C59.2166 10.4433 59.4766 10.4267 59.7166 10.4C59.9633 10.3733 60.1933 10.33 60.4066 10.27L60.4566 10.31L60.3866 10.86L60.3366 10.91L59.4266 10.87L59.4166 10.9C59.59 11.04 59.7166 11.2233 59.7966 11.45C59.8766 11.6767 59.9166 11.8967 59.9166 12.11C59.9166 12.33 59.8733 12.54 59.7866 12.74C59.7066 12.94 59.5866 13.1167 59.4266 13.27C59.2666 13.4167 59.0666 13.5367 58.8266 13.63C58.5866 13.7167 58.31 13.76 57.9966 13.76C57.9433 13.76 57.8766 13.76 57.7966 13.76C57.7166 13.7533 57.65 13.75 57.5966 13.75C57.4833 13.7967 57.3966 13.86 57.3366 13.94C57.2833 14.02 57.2566 14.0867 57.2566 14.14C57.2566 14.2067 57.3 14.2667 57.3866 14.32C57.48 14.3667 57.6266 14.4 57.8266 14.42L58.7966 14.52C59.0166 14.5467 59.22 14.5933 59.4066 14.66C59.6 14.7267 59.7666 14.8167 59.9066 14.93C60.0533 15.0367 60.1666 15.1667 60.2466 15.32C60.3266 15.48 60.3666 15.6633 60.3666 15.87C60.3666 16.0633 60.3233 16.2567 60.2366 16.45C60.15 16.65 60.02 16.8267 59.8466 16.98C59.6733 17.1267 59.4333 17.2467 59.1266 17.34C58.82 17.4333 58.4666 17.48 58.0666 17.48C57.7066 17.48 57.3933 17.44 57.1266 17.36C56.8666 17.2867 56.6466 17.1833 56.4666 17.05C56.2933 16.9233 56.1633 16.7767 56.0766 16.61C55.99 16.45 55.9466 16.2833 55.9466 16.11C55.9466 15.83 56.0366 15.58 56.2166 15.36C56.4033 15.1467 56.64 14.9967 56.9266 14.91L56.9366 14.88C56.79 14.82 56.6733 14.7467 56.5866 14.66C56.5 14.5667 56.4566 14.4533 56.4566 14.32C56.4566 14.1467 56.5266 14.0067 56.6666 13.9C56.8066 13.7933 56.9566 13.72 57.1166 13.68V13.64ZM58.0166 13.34C58.2033 13.34 58.3666 13.3067 58.5066 13.24C58.6533 13.1733 58.7766 13.0833 58.8766 12.97C58.9766 12.8567 59.0533 12.7267 59.1066 12.58C59.16 12.4267 59.1866 12.27 59.1866 12.11C59.1866 11.9433 59.16 11.7767 59.1066 11.61C59.0533 11.4433 58.9733 11.2933 58.8666 11.16C58.7666 11.0267 58.64 10.9167 58.4866 10.83C58.3333 10.7433 58.1566 10.7 57.9566 10.7C57.7633 10.7 57.5933 10.74 57.4466 10.82C57.3066 10.9 57.1866 11.0033 57.0866 11.13C56.9933 11.2567 56.9233 11.4 56.8766 11.56C56.83 11.7133 56.8066 11.8667 56.8066 12.02C56.8066 12.18 56.83 12.34 56.8766 12.5C56.93 12.6533 57.0066 12.7933 57.1066 12.92C57.2133 13.0467 57.34 13.15 57.4866 13.23C57.64 13.3033 57.8166 13.34 58.0166 13.34ZM57.6966 15.05C57.51 15.0567 57.3466 15.09 57.2066 15.15C57.0666 15.21 56.9466 15.2833 56.8466 15.37C56.7533 15.4633 56.6833 15.5633 56.6366 15.67C56.59 15.7833 56.5666 15.8933 56.5666 16C56.5666 16.2533 56.7066 16.46 56.9866 16.62C57.2666 16.78 57.6466 16.86 58.1266 16.86C58.3466 16.86 58.55 16.84 58.7366 16.8C58.9233 16.7667 59.0833 16.71 59.2166 16.63C59.3566 16.5567 59.4666 16.4633 59.5466 16.35C59.6266 16.2433 59.6666 16.1167 59.6666 15.97C59.6666 15.81 59.6266 15.68 59.5466 15.58C59.4733 15.48 59.3733 15.3967 59.2466 15.33C59.1266 15.27 58.9866 15.2233 58.8266 15.19C58.6733 15.1633 58.52 15.14 58.3666 15.12L57.6966 15.05ZM66.1876 15.04C66.1409 15.04 66.0709 15.0367 65.9776 15.03C65.8842 15.0233 65.7842 15.0167 65.6776 15.01C65.5709 15.01 65.4709 15.0067 65.3776 15C65.2842 15 65.2142 15 65.1676 15H65.0276C64.9809 15 64.9076 15 64.8076 15C64.7142 15.0067 64.6142 15.01 64.5076 15.01C64.4076 15.0167 64.3076 15.0233 64.2076 15.03C64.1142 15.0367 64.0442 15.04 63.9976 15.04L63.9876 15L63.9976 14.86L64.0376 14.82C64.1442 14.82 64.2476 14.8167 64.3476 14.81C64.4542 14.7967 64.5342 14.7633 64.5876 14.71C64.6409 14.6633 64.6742 14.6033 64.6876 14.53C64.7076 14.4567 64.7242 14.3533 64.7376 14.22C64.7442 14.1133 64.7509 14.0067 64.7576 13.9C64.7642 13.7867 64.7676 13.61 64.7676 13.37V12.14C64.7676 12 64.7676 11.8833 64.7676 11.79C64.7676 11.69 64.7642 11.6033 64.7576 11.53C64.7576 11.4567 64.7542 11.39 64.7476 11.33C64.7476 11.27 64.7442 11.2067 64.7376 11.14C64.7242 11.0667 64.7042 11.0033 64.6776 10.95C64.6509 10.89 64.6276 10.85 64.6076 10.83C64.5409 10.75 64.4576 10.7033 64.3576 10.69C64.2576 10.67 64.1542 10.66 64.0476 10.66L64.0076 10.62V10.48L64.0476 10.45H64.2276C64.3409 10.45 64.4842 10.45 64.6576 10.45C64.8309 10.4433 64.9809 10.43 65.1076 10.41L65.4576 10.36L65.5176 10.45C65.5042 10.4767 65.4909 10.5233 65.4776 10.59C65.4709 10.6567 65.4642 10.73 65.4576 10.81C65.4576 10.8833 65.4542 10.9567 65.4476 11.03C65.4476 11.1033 65.4476 11.16 65.4476 11.2C65.4476 11.2533 65.4442 11.3067 65.4376 11.36C65.4376 11.4067 65.4376 11.4633 65.4376 11.53C65.4376 11.5967 65.4342 11.6767 65.4276 11.77C65.4276 11.8633 65.4276 11.9833 65.4276 12.13V13.25C65.4276 13.3967 65.4276 13.5167 65.4276 13.61C65.4342 13.7033 65.4376 13.7833 65.4376 13.85C65.4442 13.9167 65.4476 13.98 65.4476 14.04C65.4542 14.0933 65.4609 14.1533 65.4676 14.22C65.4809 14.36 65.4942 14.4667 65.5076 14.54C65.5276 14.6067 65.5642 14.6633 65.6176 14.71C65.6709 14.7567 65.7442 14.7867 65.8376 14.8C65.9376 14.8133 66.0376 14.82 66.1376 14.82L66.1876 14.87L66.2076 15L66.1876 15.04ZM64.5076 8.69C64.5076 8.55667 64.5509 8.44333 64.6376 8.35C64.7309 8.25 64.8442 8.2 64.9776 8.2C65.1109 8.2 65.2242 8.25 65.3176 8.35C65.4176 8.44333 65.4676 8.55667 65.4676 8.69C65.4676 8.82333 65.4176 8.93667 65.3176 9.03C65.2242 9.11667 65.1109 9.16 64.9776 9.16C64.8442 9.16 64.7309 9.11667 64.6376 9.03C64.5509 8.93667 64.5076 8.82333 64.5076 8.69ZM68.5113 11.26C68.6846 10.9733 68.9079 10.7333 69.1813 10.54C69.4546 10.3467 69.7946 10.25 70.2013 10.25C70.3879 10.25 70.5746 10.2767 70.7613 10.33C70.9479 10.3833 71.1179 10.4667 71.2713 10.58C71.4313 10.6933 71.5613 10.84 71.6613 11.02C71.7679 11.1933 71.8379 11.4 71.8713 11.64C71.8913 11.8133 71.9013 11.9967 71.9013 12.19C71.9079 12.3833 71.9113 12.5767 71.9113 12.77C71.9113 13.01 71.9113 13.2533 71.9113 13.5C71.9179 13.74 71.9213 13.98 71.9213 14.22C71.9346 14.3733 71.9513 14.4867 71.9713 14.56C71.9913 14.6267 72.0213 14.6767 72.0613 14.71C72.1213 14.7633 72.2013 14.7967 72.3013 14.81C72.4079 14.8167 72.5146 14.82 72.6213 14.82L72.6513 14.86L72.6713 15L72.6513 15.04C72.5379 15.0267 72.4113 15.0167 72.2713 15.01C72.1313 15.0033 71.9946 15 71.8613 15C71.6079 15 71.3779 15.01 71.1713 15.03L71.1013 14.93C71.1279 14.8433 71.1479 14.73 71.1613 14.59C71.1746 14.45 71.1846 14.3267 71.1913 14.22C71.2046 13.94 71.2146 13.6667 71.2213 13.4C71.2279 13.1267 71.2313 12.9 71.2313 12.72C71.2313 12.5667 71.2246 12.4 71.2113 12.22C71.2046 12.04 71.1846 11.8833 71.1513 11.75C71.0846 11.4367 70.9479 11.2033 70.7413 11.05C70.5346 10.8967 70.2946 10.82 70.0213 10.82C69.8013 10.82 69.5946 10.8667 69.4013 10.96C69.2146 11.0533 69.0546 11.17 68.9213 11.31C68.7879 11.4433 68.6813 11.5867 68.6013 11.74C68.5279 11.8867 68.4913 12.0133 68.4913 12.12V13.25C68.4913 13.3967 68.4913 13.5167 68.4913 13.61C68.4913 13.7033 68.4913 13.7833 68.4913 13.85C68.4979 13.9167 68.5046 13.98 68.5113 14.04C68.5179 14.0933 68.5246 14.1533 68.5313 14.22C68.5446 14.36 68.5579 14.4667 68.5713 14.54C68.5913 14.6067 68.6279 14.6633 68.6813 14.71C68.7346 14.7567 68.8079 14.7867 68.9013 14.8C69.0013 14.8133 69.1013 14.82 69.2013 14.82L69.2513 14.87L69.2713 15L69.2513 15.04C69.2046 15.04 69.1346 15.0367 69.0413 15.03C68.9479 15.0233 68.8479 15.0167 68.7413 15.01C68.6346 15.01 68.5346 15.0067 68.4413 15C68.3479 15 68.2779 15 68.2313 15H68.0913C68.0446 15 67.9713 15 67.8713 15C67.7779 15.0067 67.6779 15.01 67.5713 15.01C67.4713 15.0167 67.3713 15.0233 67.2713 15.03C67.1779 15.0367 67.1079 15.04 67.0613 15.04L67.0513 15L67.0613 14.86L67.1013 14.82C67.2079 14.82 67.3113 14.8167 67.4113 14.81C67.5179 14.7967 67.5979 14.7633 67.6513 14.71C67.7046 14.6633 67.7379 14.6033 67.7513 14.53C67.7713 14.4567 67.7879 14.3533 67.8013 14.22C67.8079 14.1133 67.8146 14.0067 67.8213 13.9C67.8279 13.7867 67.8313 13.61 67.8313 13.37V12.14C67.8313 12 67.8313 11.8833 67.8313 11.79C67.8313 11.69 67.8279 11.6033 67.8213 11.53C67.8213 11.4567 67.8179 11.39 67.8113 11.33C67.8113 11.27 67.8079 11.2067 67.8013 11.14C67.7879 11.0667 67.7679 11.0033 67.7413 10.95C67.7146 10.89 67.6913 10.85 67.6713 10.83C67.6046 10.75 67.5213 10.7033 67.4213 10.69C67.3213 10.67 67.2179 10.66 67.1113 10.66L67.0713 10.62V10.48L67.1113 10.45H67.2913C67.4046 10.45 67.5479 10.45 67.7213 10.45C67.8946 10.4433 68.0446 10.43 68.1713 10.41L68.5213 10.36L68.5813 10.45C68.5479 10.5367 68.5246 10.6567 68.5113 10.81C68.4979 10.9567 68.4879 11.1 68.4813 11.24L68.5113 11.26ZM78.7873 10.87H77.4873C77.4873 11.3033 77.484 11.7033 77.4773 12.07C77.4773 12.4367 77.4773 12.76 77.4773 13.04C77.4773 13.3133 77.474 13.5333 77.4673 13.7C77.4673 13.8667 77.4673 13.97 77.4673 14.01C77.4673 14.27 77.5173 14.4433 77.6173 14.53C77.7173 14.6167 77.834 14.66 77.9673 14.66C78.0807 14.66 78.2107 14.64 78.3573 14.6C78.5107 14.5533 78.634 14.5033 78.7273 14.45L78.8173 14.52L78.7273 14.8C78.574 14.9067 78.4007 14.9833 78.2073 15.03C78.0207 15.0833 77.854 15.11 77.7073 15.11C77.3673 15.11 77.1273 15.0167 76.9873 14.83C76.8473 14.6433 76.7773 14.4033 76.7773 14.11C76.7773 14.05 76.7807 13.9267 76.7873 13.74C76.794 13.5533 76.8007 13.32 76.8073 13.04C76.814 12.76 76.8207 12.4367 76.8273 12.07C76.834 11.7033 76.8373 11.3033 76.8373 10.87H76.1173L76.0773 10.82V10.63L76.1173 10.59L76.8373 10.45C76.8373 10.2167 76.8307 9.98 76.8173 9.74C76.8107 9.49333 76.8007 9.25333 76.7873 9.02L76.8573 8.96L76.9973 8.95C77.0507 8.94333 77.1373 8.93 77.2573 8.91C77.3773 8.89 77.4607 8.86667 77.5073 8.84L77.5973 8.88C77.5773 8.97333 77.5607 9.08333 77.5473 9.21C77.534 9.33 77.5207 9.46 77.5073 9.6C77.5007 9.74 77.494 9.88333 77.4873 10.03C77.4873 10.1767 77.4873 10.3167 77.4873 10.45L78.7873 10.39L78.8373 10.43V10.82L78.7873 10.87ZM83.6391 14.93C83.6657 14.8433 83.6857 14.73 83.6991 14.59C83.7124 14.45 83.7224 14.3267 83.7291 14.22C83.7424 13.94 83.7524 13.6667 83.7591 13.4C83.7657 13.1267 83.7691 12.9 83.7691 12.72C83.7691 12.5667 83.7624 12.4 83.7491 12.22C83.7424 12.04 83.7224 11.8833 83.6891 11.75C83.6224 11.4367 83.4857 11.2033 83.2791 11.05C83.0724 10.8967 82.8324 10.82 82.5591 10.82C82.3391 10.82 82.1324 10.87 81.9391 10.97C81.7524 11.0633 81.5924 11.18 81.4591 11.32C81.3257 11.4533 81.2191 11.5967 81.1391 11.75C81.0657 11.8967 81.0291 12.02 81.0291 12.12C81.0291 12.48 81.0291 12.77 81.0291 12.99C81.0291 13.2033 81.0291 13.3833 81.0291 13.53C81.0357 13.6767 81.0391 13.8 81.0391 13.9C81.0457 13.9933 81.0557 14.1 81.0691 14.22C81.0824 14.36 81.0957 14.4667 81.1091 14.54C81.1291 14.6067 81.1657 14.6633 81.2191 14.71C81.2724 14.7567 81.3457 14.7867 81.4391 14.8C81.5391 14.8133 81.6391 14.82 81.7391 14.82L81.7891 14.87L81.8091 15L81.7891 15.04C81.7424 15.04 81.6724 15.0367 81.5791 15.03C81.4857 15.0233 81.3857 15.0167 81.2791 15.01C81.1724 15.01 81.0724 15.0067 80.9791 15C80.8857 15 80.8157 15 80.7691 15H80.6291C80.5824 15 80.5091 15 80.4091 15C80.3157 15.0067 80.2157 15.01 80.1091 15.01C80.0091 15.0167 79.9091 15.0233 79.8091 15.03C79.7157 15.0367 79.6457 15.04 79.5991 15.04L79.5891 15L79.5991 14.86L79.6391 14.82C79.7457 14.82 79.8491 14.8167 79.9491 14.81C80.0557 14.7967 80.1357 14.7633 80.1891 14.71C80.2424 14.6633 80.2757 14.6033 80.2891 14.53C80.3091 14.4567 80.3257 14.3533 80.3391 14.22C80.3457 14.1333 80.3491 14.0467 80.3491 13.96C80.3557 13.8733 80.3591 13.7733 80.3591 13.66C80.3657 13.54 80.3691 13.4033 80.3691 13.25C80.3691 13.09 80.3691 12.8933 80.3691 12.66V10.26C80.3691 9.98667 80.3691 9.75667 80.3691 9.57C80.3691 9.37667 80.3657 9.21 80.3591 9.07C80.3591 8.93 80.3557 8.80667 80.3491 8.7C80.3491 8.59333 80.3457 8.48667 80.3391 8.38C80.3324 8.30667 80.3124 8.24333 80.2791 8.19C80.2524 8.13667 80.2291 8.09667 80.2091 8.07C80.1424 7.99667 80.0591 7.95 79.9591 7.93C79.8591 7.91 79.7557 7.9 79.6491 7.9L79.6091 7.86V7.73L79.6491 7.69H79.8291C79.9424 7.69 80.0857 7.69 80.2591 7.69C80.4324 7.68333 80.5824 7.67 80.7091 7.65L81.0591 7.6L81.1191 7.69C81.1057 7.71667 81.0957 7.76667 81.0891 7.84C81.0824 7.90667 81.0757 7.98 81.0691 8.06C81.0624 8.14 81.0591 8.21667 81.0591 8.29C81.0591 8.36333 81.0591 8.42 81.0591 8.46C81.0591 8.67333 81.0524 8.93 81.0391 9.23C81.0324 9.52333 81.0291 9.86 81.0291 10.24C81.0291 10.52 81.0257 10.74 81.0191 10.9C81.0191 11.06 81.0124 11.1867 80.9991 11.28L81.0291 11.3C81.1957 11.0067 81.4191 10.76 81.6991 10.56C81.9791 10.3533 82.3257 10.25 82.7391 10.25C82.9257 10.25 83.1124 10.2767 83.2991 10.33C83.4924 10.3833 83.6657 10.4667 83.8191 10.58C83.9724 10.6933 84.1024 10.8367 84.2091 11.01C84.3157 11.1833 84.3824 11.39 84.4091 11.63C84.4291 11.8033 84.4391 12.0033 84.4391 12.23C84.4457 12.45 84.4491 12.63 84.4491 12.77V14.18C84.4491 14.3333 84.4624 14.4533 84.4891 14.54C84.5224 14.62 84.5591 14.6767 84.5991 14.71C84.6591 14.7633 84.7391 14.7967 84.8391 14.81C84.9457 14.8167 85.0524 14.82 85.1591 14.82L85.1891 14.86L85.2091 15L85.1891 15.04C85.0757 15.0267 84.9491 15.0167 84.8091 15.01C84.6691 15.0033 84.5324 15 84.3991 15C84.1457 15 83.9157 15.01 83.7091 15.03L83.6391 14.93ZM90.4559 12.31L90.2959 12.38C89.9359 12.38 89.5659 12.3833 89.1859 12.39C88.8059 12.3967 88.4325 12.4 88.0659 12.4H86.8859C86.8792 12.4467 86.8759 12.4933 86.8759 12.54C86.8759 12.58 86.8759 12.62 86.8759 12.66C86.8759 12.9133 86.9125 13.1567 86.9859 13.39C87.0592 13.6167 87.1725 13.8167 87.3259 13.99C87.4859 14.1633 87.6892 14.3033 87.9359 14.41C88.1825 14.51 88.4825 14.56 88.8359 14.56C89.0425 14.56 89.2625 14.54 89.4959 14.5C89.7359 14.4533 89.9559 14.3733 90.1559 14.26L90.2559 14.32V14.5L90.1559 14.61C89.9959 14.7367 89.7692 14.8533 89.4759 14.96C89.1825 15.06 88.8559 15.11 88.4959 15.11C88.1425 15.11 87.8192 15.0533 87.5259 14.94C87.2392 14.82 86.9892 14.6533 86.7759 14.44C86.5692 14.2267 86.4059 13.9733 86.2859 13.68C86.1725 13.3867 86.1159 13.06 86.1159 12.7C86.1159 12.3333 86.1759 12 86.2959 11.7C86.4159 11.4 86.5792 11.1433 86.7859 10.93C86.9992 10.7167 87.2459 10.55 87.5259 10.43C87.8125 10.31 88.1192 10.25 88.4459 10.25C88.6192 10.25 88.8125 10.2733 89.0259 10.32C89.2459 10.3667 89.4559 10.4567 89.6559 10.59C89.8559 10.7167 90.0359 10.9 90.1959 11.14C90.3559 11.3733 90.4659 11.6833 90.5259 12.07L90.4559 12.31ZM88.4559 10.7C88.2425 10.7 88.0492 10.7367 87.8759 10.81C87.7092 10.8767 87.5592 10.97 87.4259 11.09C87.2992 11.2033 87.1925 11.34 87.1059 11.5C87.0259 11.6533 86.9692 11.8167 86.9359 11.99H87.3259C87.6859 11.99 88.0359 11.9867 88.3759 11.98C88.7159 11.9667 89.0725 11.95 89.4459 11.93C89.5325 11.9233 89.5892 11.9 89.6159 11.86C89.6492 11.82 89.6659 11.7733 89.6659 11.72C89.6659 11.68 89.6625 11.6433 89.6559 11.61C89.6492 11.5767 89.6392 11.5433 89.6259 11.51C89.5525 11.2567 89.4159 11.06 89.2159 10.92C89.0159 10.7733 88.7625 10.7 88.4559 10.7ZM94.2521 10.48L94.2921 10.45H94.4721C94.5854 10.45 94.7288 10.45 94.9021 10.45C95.0754 10.4433 95.2254 10.43 95.3521 10.41L95.7021 10.36L95.7621 10.45C95.7488 10.49 95.7354 10.5433 95.7221 10.61C95.7154 10.67 95.7054 10.74 95.6921 10.82C95.6854 10.8933 95.6788 10.9667 95.6721 11.04C95.6654 11.1133 95.6621 11.1767 95.6621 11.23L95.6921 11.25C95.7654 11.1167 95.8488 10.99 95.9421 10.87C96.0421 10.7433 96.1554 10.6367 96.2821 10.55C96.4088 10.4567 96.5521 10.3833 96.7121 10.33C96.8721 10.2767 97.0554 10.25 97.2621 10.25C97.4354 10.25 97.6054 10.2733 97.7721 10.32C97.9388 10.36 98.0921 10.4267 98.2321 10.52C98.3788 10.6067 98.5054 10.7233 98.6121 10.87C98.7254 11.01 98.8121 11.18 98.8721 11.38C98.9521 11.2333 99.0388 11.0933 99.1321 10.96C99.2321 10.82 99.3454 10.7 99.4721 10.6C99.6054 10.4933 99.7554 10.41 99.9221 10.35C100.095 10.2833 100.292 10.25 100.512 10.25C100.705 10.25 100.892 10.2767 101.072 10.33C101.259 10.3833 101.425 10.4667 101.572 10.58C101.725 10.6933 101.855 10.8367 101.962 11.01C102.075 11.1833 102.152 11.3933 102.192 11.64C102.225 11.8133 102.242 11.9967 102.242 12.19C102.249 12.3833 102.252 12.5767 102.252 12.77V14.22C102.252 14.3733 102.265 14.4867 102.292 14.56C102.319 14.6267 102.355 14.6767 102.402 14.71C102.455 14.7633 102.532 14.7967 102.632 14.81C102.739 14.8167 102.845 14.82 102.952 14.82L102.992 14.86L103.012 15L102.992 15.04C102.872 15.0267 102.742 15.0167 102.602 15.01C102.469 15.0033 102.332 15 102.192 15C101.945 15 101.719 15.01 101.512 15.03L101.442 14.93C101.469 14.8433 101.489 14.73 101.502 14.59C101.515 14.45 101.525 14.3267 101.532 14.22C101.539 14.12 101.542 13.9967 101.542 13.85C101.549 13.7033 101.552 13.5567 101.552 13.41C101.559 13.2567 101.562 13.1133 101.562 12.98C101.562 12.8467 101.562 12.7433 101.562 12.67C101.562 12.5367 101.555 12.37 101.542 12.17C101.535 11.9633 101.515 11.79 101.482 11.65C101.415 11.3767 101.279 11.17 101.072 11.03C100.872 10.89 100.645 10.82 100.392 10.82C100.205 10.82 100.032 10.8567 99.8721 10.93C99.7188 10.9967 99.5821 11.0833 99.4621 11.19C99.3421 11.29 99.2388 11.4033 99.1521 11.53C99.0721 11.6567 99.0121 11.7767 98.9721 11.89C98.9854 12.0367 98.9921 12.1833 98.9921 12.33C98.9988 12.4767 99.0021 12.6233 99.0021 12.77V14.22C99.0021 14.36 99.0154 14.4667 99.0421 14.54C99.0688 14.6067 99.1088 14.6633 99.1621 14.71C99.2154 14.7567 99.2888 14.7867 99.3821 14.8C99.4821 14.8133 99.5821 14.82 99.6821 14.82L99.7321 14.87L99.7521 15L99.7321 15.04C99.6854 15.04 99.6154 15.0367 99.5221 15.03C99.4288 15.0233 99.3288 15.0167 99.2221 15.01C99.1154 15.01 99.0154 15.0067 98.9221 15C98.8288 15 98.7588 15 98.7121 15H98.5721C98.5254 15 98.4521 15 98.3521 15C98.2588 15.0067 98.1588 15.01 98.0521 15.01C97.9521 15.0167 97.8521 15.0233 97.7521 15.03C97.6588 15.0367 97.5888 15.04 97.5421 15.04L97.5221 15L97.5421 14.86L97.5821 14.82C97.6888 14.82 97.7921 14.8167 97.8921 14.81C97.9988 14.7967 98.0788 14.7633 98.1321 14.71C98.1854 14.6633 98.2188 14.6033 98.2321 14.53C98.2454 14.4567 98.2588 14.3533 98.2721 14.22C98.2788 14.12 98.2821 13.9967 98.2821 13.85C98.2888 13.7033 98.2921 13.5567 98.2921 13.41C98.2988 13.2567 98.3021 13.1133 98.3021 12.98C98.3088 12.8467 98.3121 12.7433 98.3121 12.67C98.3121 12.6033 98.3121 12.5267 98.3121 12.44C98.3121 12.3467 98.3088 12.2533 98.3021 12.16C98.2954 12.0667 98.2854 11.9767 98.2721 11.89C98.2654 11.8033 98.2521 11.7233 98.2321 11.65C98.1588 11.3767 98.0221 11.17 97.8221 11.03C97.6221 10.89 97.3954 10.82 97.1421 10.82C96.9221 10.82 96.7221 10.87 96.5421 10.97C96.3621 11.0633 96.2054 11.18 96.0721 11.32C95.9454 11.4533 95.8454 11.5967 95.7721 11.75C95.7054 11.8967 95.6721 12.0233 95.6721 12.13V13.25C95.6721 13.3967 95.6721 13.5167 95.6721 13.61C95.6788 13.7033 95.6821 13.7833 95.6821 13.85C95.6888 13.9167 95.6921 13.98 95.6921 14.04C95.6988 14.0933 95.7054 14.1533 95.7121 14.22C95.7254 14.36 95.7388 14.4667 95.7521 14.54C95.7721 14.6067 95.8088 14.6633 95.8621 14.71C95.9154 14.7567 95.9888 14.7867 96.0821 14.8C96.1821 14.8133 96.2821 14.82 96.3821 14.82L96.4321 14.87L96.4521 15L96.4321 15.04C96.3854 15.04 96.3154 15.0367 96.2221 15.03C96.1288 15.0233 96.0288 15.0167 95.9221 15.01C95.8154 15.01 95.7154 15.0067 95.6221 15C95.5288 15 95.4588 15 95.4121 15H95.2721C95.2254 15 95.1521 15 95.0521 15C94.9588 15.0067 94.8588 15.01 94.7521 15.01C94.6521 15.0167 94.5521 15.0233 94.4521 15.03C94.3588 15.0367 94.2888 15.04 94.2421 15.04L94.2321 15L94.2421 14.86L94.2821 14.82C94.3888 14.82 94.4921 14.8167 94.5921 14.81C94.6988 14.7967 94.7788 14.7633 94.8321 14.71C94.8854 14.6633 94.9188 14.6033 94.9321 14.53C94.9521 14.4567 94.9688 14.3533 94.9821 14.22C94.9888 14.1133 94.9954 14.0067 95.0021 13.9C95.0088 13.7867 95.0121 13.61 95.0121 13.37V12.14C95.0121 12 95.0121 11.8833 95.0121 11.79C95.0121 11.69 95.0088 11.6033 95.0021 11.53C95.0021 11.4567 94.9988 11.39 94.9921 11.33C94.9921 11.27 94.9888 11.2067 94.9821 11.14C94.9688 11.0667 94.9488 11.0033 94.9221 10.95C94.8954 10.89 94.8721 10.85 94.8521 10.83C94.7854 10.75 94.7021 10.7033 94.6021 10.69C94.5021 10.67 94.3988 10.66 94.2921 10.66L94.2521 10.62V10.48ZM106.36 10.25C106.754 10.25 107.104 10.32 107.41 10.46C107.717 10.5933 107.974 10.7767 108.18 11.01C108.394 11.2367 108.554 11.5 108.66 11.8C108.774 12.1 108.83 12.41 108.83 12.73C108.83 13.0367 108.78 13.3333 108.68 13.62C108.58 13.9067 108.427 14.16 108.22 14.38C108.014 14.6 107.757 14.7767 107.45 14.91C107.144 15.0433 106.787 15.11 106.38 15.11C105.96 15.11 105.594 15.04 105.28 14.9C104.967 14.76 104.707 14.5767 104.5 14.35C104.3 14.1233 104.15 13.8667 104.05 13.58C103.95 13.2867 103.9 12.9867 103.9 12.68C103.9 12.3533 103.957 12.0433 104.07 11.75C104.184 11.4567 104.344 11.2 104.55 10.98C104.764 10.7533 105.02 10.5767 105.32 10.45C105.627 10.3167 105.974 10.25 106.36 10.25ZM106.37 14.72C106.65 14.72 106.897 14.6633 107.11 14.55C107.324 14.4367 107.5 14.2867 107.64 14.1C107.78 13.9133 107.884 13.7033 107.95 13.47C108.024 13.23 108.06 12.9833 108.06 12.73C108.06 12.49 108.02 12.2467 107.94 12C107.867 11.7533 107.757 11.5333 107.61 11.34C107.464 11.14 107.284 10.98 107.07 10.86C106.857 10.7333 106.61 10.67 106.33 10.67C106.037 10.67 105.784 10.73 105.57 10.85C105.364 10.9633 105.19 11.1133 105.05 11.3C104.917 11.4867 104.817 11.7 104.75 11.94C104.684 12.18 104.65 12.42 104.65 12.66C104.65 12.9067 104.687 13.1533 104.76 13.4C104.84 13.64 104.954 13.86 105.1 14.06C105.247 14.2533 105.427 14.4133 105.64 14.54C105.854 14.66 106.097 14.72 106.37 14.72ZM113.87 14.14C113.697 14.42 113.474 14.6533 113.2 14.84C112.934 15.02 112.604 15.11 112.21 15.11C112.017 15.11 111.83 15.0867 111.65 15.04C111.477 15 111.314 14.93 111.16 14.83C111.014 14.73 110.887 14.5967 110.78 14.43C110.674 14.2633 110.597 14.0533 110.55 13.8C110.517 13.6267 110.5 13.4467 110.5 13.26C110.507 13.0667 110.507 12.8733 110.5 12.68C110.5 12.5933 110.497 12.4767 110.49 12.33C110.49 12.1767 110.49 12.0233 110.49 11.87C110.49 11.71 110.49 11.5633 110.49 11.43C110.49 11.2967 110.49 11.2 110.49 11.14C110.49 11.0667 110.474 11.0033 110.44 10.95C110.407 10.89 110.38 10.8467 110.36 10.82C110.294 10.7467 110.21 10.7033 110.11 10.69C110.01 10.67 109.907 10.66 109.8 10.66L109.77 10.62V10.48L109.8 10.45H109.98C110.094 10.45 110.237 10.45 110.41 10.45C110.584 10.4433 110.734 10.43 110.86 10.41L111.21 10.36L111.27 10.45C111.257 10.4767 111.247 10.5267 111.24 10.6C111.234 10.6667 111.227 10.74 111.22 10.82C111.214 10.9 111.21 10.9767 111.21 11.05C111.21 11.1233 111.21 11.18 111.21 11.22C111.21 11.3333 111.207 11.46 111.2 11.6C111.2 11.7333 111.197 11.87 111.19 12.01C111.19 12.15 111.187 12.2833 111.18 12.41C111.18 12.5367 111.18 12.6433 111.18 12.73C111.18 12.8767 111.184 13.0433 111.19 13.23C111.204 13.41 111.227 13.5667 111.26 13.7C111.327 14.0133 111.464 14.2467 111.67 14.4C111.877 14.5533 112.117 14.63 112.39 14.63C112.597 14.63 112.787 14.59 112.96 14.51C113.134 14.4233 113.284 14.32 113.41 14.2C113.544 14.08 113.65 13.9533 113.73 13.82C113.817 13.68 113.874 13.5533 113.9 13.44V12.14C113.9 12 113.897 11.8833 113.89 11.79C113.89 11.69 113.887 11.6033 113.88 11.53C113.88 11.4567 113.877 11.39 113.87 11.33C113.87 11.27 113.867 11.2067 113.86 11.14C113.847 11.0667 113.827 11.0033 113.8 10.95C113.78 10.89 113.76 10.85 113.74 10.83C113.674 10.75 113.59 10.7033 113.49 10.69C113.39 10.67 113.287 10.66 113.18 10.66L113.14 10.62V10.48L113.18 10.45H113.36C113.474 10.45 113.617 10.45 113.79 10.45C113.964 10.4433 114.11 10.43 114.23 10.41L114.58 10.36L114.64 10.45C114.627 10.4767 114.617 10.5267 114.61 10.6C114.604 10.6667 114.597 10.74 114.59 10.82C114.584 10.9 114.58 10.9767 114.58 11.05C114.58 11.1233 114.58 11.18 114.58 11.22C114.58 11.2733 114.577 11.3233 114.57 11.37C114.57 11.4167 114.57 11.4733 114.57 11.54C114.57 11.6067 114.567 11.6867 114.56 11.78C114.56 11.8667 114.56 11.9833 114.56 12.13V13.25C114.56 13.3967 114.56 13.5167 114.56 13.61C114.567 13.7033 114.57 13.7833 114.57 13.85C114.577 13.9167 114.58 13.98 114.58 14.04C114.587 14.0933 114.59 14.1533 114.59 14.22C114.604 14.3733 114.62 14.4867 114.64 14.56C114.66 14.6267 114.694 14.6767 114.74 14.71C114.794 14.7633 114.87 14.7967 114.97 14.81C115.077 14.8167 115.184 14.82 115.29 14.82L115.33 14.86L115.35 15L115.33 15.04C115.21 15.0267 115.08 15.0167 114.94 15.01C114.8 15.0033 114.664 15 114.53 15C114.277 15 114.047 15.01 113.84 15.03L113.78 14.93C113.8 14.8433 113.82 14.73 113.84 14.59C113.867 14.45 113.887 14.3067 113.9 14.16L113.87 14.14ZM117.647 11.26C117.82 10.9733 118.043 10.7333 118.317 10.54C118.59 10.3467 118.93 10.25 119.337 10.25C119.523 10.25 119.71 10.2767 119.897 10.33C120.083 10.3833 120.253 10.4667 120.407 10.58C120.567 10.6933 120.697 10.84 120.797 11.02C120.903 11.1933 120.973 11.4 121.007 11.64C121.027 11.8133 121.037 11.9967 121.037 12.19C121.043 12.3833 121.047 12.5767 121.047 12.77C121.047 13.01 121.047 13.2533 121.047 13.5C121.053 13.74 121.057 13.98 121.057 14.22C121.07 14.3733 121.087 14.4867 121.107 14.56C121.127 14.6267 121.157 14.6767 121.197 14.71C121.257 14.7633 121.337 14.7967 121.437 14.81C121.543 14.8167 121.65 14.82 121.757 14.82L121.787 14.86L121.807 15L121.787 15.04C121.673 15.0267 121.547 15.0167 121.407 15.01C121.267 15.0033 121.13 15 120.997 15C120.743 15 120.513 15.01 120.307 15.03L120.237 14.93C120.263 14.8433 120.283 14.73 120.297 14.59C120.31 14.45 120.32 14.3267 120.327 14.22C120.34 13.94 120.35 13.6667 120.357 13.4C120.363 13.1267 120.367 12.9 120.367 12.72C120.367 12.5667 120.36 12.4 120.347 12.22C120.34 12.04 120.32 11.8833 120.287 11.75C120.22 11.4367 120.083 11.2033 119.877 11.05C119.67 10.8967 119.43 10.82 119.157 10.82C118.937 10.82 118.73 10.8667 118.537 10.96C118.35 11.0533 118.19 11.17 118.057 11.31C117.923 11.4433 117.817 11.5867 117.737 11.74C117.663 11.8867 117.627 12.0133 117.627 12.12V13.25C117.627 13.3967 117.627 13.5167 117.627 13.61C117.627 13.7033 117.627 13.7833 117.627 13.85C117.633 13.9167 117.64 13.98 117.647 14.04C117.653 14.0933 117.66 14.1533 117.667 14.22C117.68 14.36 117.693 14.4667 117.707 14.54C117.727 14.6067 117.763 14.6633 117.817 14.71C117.87 14.7567 117.943 14.7867 118.037 14.8C118.137 14.8133 118.237 14.82 118.337 14.82L118.387 14.87L118.407 15L118.387 15.04C118.34 15.04 118.27 15.0367 118.177 15.03C118.083 15.0233 117.983 15.0167 117.877 15.01C117.77 15.01 117.67 15.0067 117.577 15C117.483 15 117.413 15 117.367 15H117.227C117.18 15 117.107 15 117.007 15C116.913 15.0067 116.813 15.01 116.707 15.01C116.607 15.0167 116.507 15.0233 116.407 15.03C116.313 15.0367 116.243 15.04 116.197 15.04L116.187 15L116.197 14.86L116.237 14.82C116.343 14.82 116.447 14.8167 116.547 14.81C116.653 14.7967 116.733 14.7633 116.787 14.71C116.84 14.6633 116.873 14.6033 116.887 14.53C116.907 14.4567 116.923 14.3533 116.937 14.22C116.943 14.1133 116.95 14.0067 116.957 13.9C116.963 13.7867 116.967 13.61 116.967 13.37V12.14C116.967 12 116.967 11.8833 116.967 11.79C116.967 11.69 116.963 11.6033 116.957 11.53C116.957 11.4567 116.953 11.39 116.947 11.33C116.947 11.27 116.943 11.2067 116.937 11.14C116.923 11.0667 116.903 11.0033 116.877 10.95C116.85 10.89 116.827 10.85 116.807 10.83C116.74 10.75 116.657 10.7033 116.557 10.69C116.457 10.67 116.353 10.66 116.247 10.66L116.207 10.62V10.48L116.247 10.45H116.427C116.54 10.45 116.683 10.45 116.857 10.45C117.03 10.4433 117.18 10.43 117.307 10.41L117.657 10.36L117.717 10.45C117.683 10.5367 117.66 10.6567 117.647 10.81C117.633 10.9567 117.623 11.1 117.617 11.24L117.647 11.26ZM125.221 10.87H123.921C123.921 11.3033 123.917 11.7033 123.911 12.07C123.911 12.4367 123.911 12.76 123.911 13.04C123.911 13.3133 123.907 13.5333 123.901 13.7C123.901 13.8667 123.901 13.97 123.901 14.01C123.901 14.27 123.951 14.4433 124.051 14.53C124.151 14.6167 124.267 14.66 124.401 14.66C124.514 14.66 124.644 14.64 124.791 14.6C124.944 14.5533 125.067 14.5033 125.161 14.45L125.251 14.52L125.161 14.8C125.007 14.9067 124.834 14.9833 124.641 15.03C124.454 15.0833 124.287 15.11 124.141 15.11C123.801 15.11 123.561 15.0167 123.421 14.83C123.281 14.6433 123.211 14.4033 123.211 14.11C123.211 14.05 123.214 13.9267 123.221 13.74C123.227 13.5533 123.234 13.32 123.241 13.04C123.247 12.76 123.254 12.4367 123.261 12.07C123.267 11.7033 123.271 11.3033 123.271 10.87H122.551L122.511 10.82V10.63L122.551 10.59L123.271 10.45C123.271 10.2167 123.264 9.98 123.251 9.74C123.244 9.49333 123.234 9.25333 123.221 9.02L123.291 8.96L123.431 8.95C123.484 8.94333 123.571 8.93 123.691 8.91C123.811 8.89 123.894 8.86667 123.941 8.84L124.031 8.88C124.011 8.97333 123.994 9.08333 123.981 9.21C123.967 9.33 123.954 9.46 123.941 9.6C123.934 9.74 123.927 9.88333 123.921 10.03C123.921 10.1767 123.921 10.3167 123.921 10.45L125.221 10.39L125.271 10.43V10.82L125.221 10.87ZM128.342 15.04C128.296 15.04 128.226 15.0367 128.132 15.03C128.039 15.0233 127.939 15.0167 127.832 15.01C127.726 15.01 127.626 15.0067 127.532 15C127.439 15 127.369 15 127.322 15H127.182C127.136 15 127.062 15 126.962 15C126.869 15.0067 126.769 15.01 126.662 15.01C126.562 15.0167 126.462 15.0233 126.362 15.03C126.269 15.0367 126.199 15.04 126.152 15.04L126.142 15L126.152 14.86L126.192 14.82C126.299 14.82 126.402 14.8167 126.502 14.81C126.609 14.7967 126.689 14.7633 126.742 14.71C126.796 14.6633 126.829 14.6033 126.842 14.53C126.862 14.4567 126.879 14.3533 126.892 14.22C126.899 14.1133 126.906 14.0067 126.912 13.9C126.919 13.7867 126.922 13.61 126.922 13.37V12.14C126.922 12 126.922 11.8833 126.922 11.79C126.922 11.69 126.919 11.6033 126.912 11.53C126.912 11.4567 126.909 11.39 126.902 11.33C126.902 11.27 126.899 11.2067 126.892 11.14C126.879 11.0667 126.859 11.0033 126.832 10.95C126.806 10.89 126.782 10.85 126.762 10.83C126.696 10.75 126.612 10.7033 126.512 10.69C126.412 10.67 126.309 10.66 126.202 10.66L126.162 10.62V10.48L126.202 10.45H126.382C126.496 10.45 126.639 10.45 126.812 10.45C126.986 10.4433 127.136 10.43 127.262 10.41L127.612 10.36L127.672 10.45C127.659 10.4767 127.646 10.5233 127.632 10.59C127.626 10.6567 127.619 10.73 127.612 10.81C127.612 10.8833 127.609 10.9567 127.602 11.03C127.602 11.1033 127.602 11.16 127.602 11.2C127.602 11.2533 127.599 11.3067 127.592 11.36C127.592 11.4067 127.592 11.4633 127.592 11.53C127.592 11.5967 127.589 11.6767 127.582 11.77C127.582 11.8633 127.582 11.9833 127.582 12.13V13.25C127.582 13.3967 127.582 13.5167 127.582 13.61C127.589 13.7033 127.592 13.7833 127.592 13.85C127.599 13.9167 127.602 13.98 127.602 14.04C127.609 14.0933 127.616 14.1533 127.622 14.22C127.636 14.36 127.649 14.4667 127.662 14.54C127.682 14.6067 127.719 14.6633 127.772 14.71C127.826 14.7567 127.899 14.7867 127.992 14.8C128.092 14.8133 128.192 14.82 128.292 14.82L128.342 14.87L128.362 15L128.342 15.04ZM126.662 8.69C126.662 8.55667 126.706 8.44333 126.792 8.35C126.886 8.25 126.999 8.2 127.132 8.2C127.266 8.2 127.379 8.25 127.472 8.35C127.572 8.44333 127.622 8.55667 127.622 8.69C127.622 8.82333 127.572 8.93667 127.472 9.03C127.379 9.11667 127.266 9.16 127.132 9.16C126.999 9.16 126.886 9.11667 126.792 9.03C126.706 8.93667 126.662 8.82333 126.662 8.69ZM132.126 14.93C132.146 14.8567 132.159 14.7467 132.166 14.6C132.179 14.4533 132.196 14.3167 132.216 14.19L132.206 14.16C132.119 14.28 132.016 14.3967 131.896 14.51C131.776 14.6233 131.643 14.7267 131.496 14.82C131.356 14.9067 131.203 14.9767 131.036 15.03C130.876 15.0833 130.706 15.11 130.526 15.11C130.319 15.11 130.136 15.0733 129.976 15C129.816 14.9267 129.683 14.83 129.576 14.71C129.469 14.59 129.389 14.45 129.336 14.29C129.283 14.13 129.256 13.9633 129.256 13.79C129.256 13.5433 129.313 13.33 129.426 13.15C129.539 12.9633 129.689 12.81 129.876 12.69C130.049 12.5833 130.253 12.4967 130.486 12.43C130.726 12.3633 130.956 12.3167 131.176 12.29C131.403 12.2567 131.606 12.2367 131.786 12.23C131.966 12.2167 132.086 12.21 132.146 12.21H132.286C132.279 11.9633 132.266 11.77 132.246 11.63C132.226 11.4833 132.199 11.3633 132.166 11.27C132.093 11.07 131.966 10.9267 131.786 10.84C131.606 10.7467 131.389 10.7 131.136 10.7C131.029 10.7 130.913 10.71 130.786 10.73C130.666 10.75 130.549 10.7867 130.436 10.84C130.329 10.8933 130.236 10.97 130.156 11.07C130.076 11.1633 130.029 11.2867 130.016 11.44L129.976 11.47H129.756L129.666 10.73L129.696 10.67C129.729 10.63 129.799 10.5867 129.906 10.54C130.013 10.4933 130.136 10.45 130.276 10.41C130.423 10.3633 130.583 10.3267 130.756 10.3C130.936 10.2667 131.113 10.25 131.286 10.25C131.526 10.25 131.749 10.2833 131.956 10.35C132.163 10.41 132.339 10.5033 132.486 10.63C132.639 10.7567 132.759 10.9167 132.846 11.11C132.933 11.2967 132.976 11.5167 132.976 11.77C132.976 12.05 132.973 12.3 132.966 12.52C132.966 12.7333 132.963 12.9333 132.956 13.12C132.949 13.3 132.943 13.48 132.936 13.66C132.936 13.8333 132.936 14.02 132.936 14.22C132.949 14.3733 132.966 14.4867 132.986 14.56C133.006 14.6267 133.039 14.6767 133.086 14.71C133.139 14.7633 133.216 14.7967 133.316 14.81C133.423 14.8167 133.529 14.82 133.636 14.82L133.676 14.86L133.686 15L133.676 15.04C133.556 15.0267 133.426 15.0167 133.286 15.01C133.146 15.0033 133.009 15 132.876 15C132.623 15 132.393 15.01 132.186 15.03L132.126 14.93ZM132.126 13.85C132.146 13.8167 132.166 13.7767 132.186 13.73C132.213 13.6833 132.229 13.6267 132.236 13.56L132.286 12.56H132.196C131.929 12.56 131.663 12.5767 131.396 12.61C131.129 12.6367 130.889 12.6933 130.676 12.78C130.469 12.8667 130.299 12.9867 130.166 13.14C130.033 13.2933 129.966 13.49 129.966 13.73C129.966 13.9833 130.039 14.1867 130.186 14.34C130.333 14.4867 130.523 14.56 130.756 14.56C130.896 14.56 131.036 14.5367 131.176 14.49C131.316 14.4433 131.446 14.3833 131.566 14.31C131.693 14.2367 131.803 14.16 131.896 14.08C131.996 14 132.073 13.9233 132.126 13.85ZM135.927 11.26C136.1 10.9733 136.324 10.7333 136.597 10.54C136.87 10.3467 137.21 10.25 137.617 10.25C137.804 10.25 137.99 10.2767 138.177 10.33C138.364 10.3833 138.534 10.4667 138.687 10.58C138.847 10.6933 138.977 10.84 139.077 11.02C139.184 11.1933 139.254 11.4 139.287 11.64C139.307 11.8133 139.317 11.9967 139.317 12.19C139.324 12.3833 139.327 12.5767 139.327 12.77C139.327 13.01 139.327 13.2533 139.327 13.5C139.334 13.74 139.337 13.98 139.337 14.22C139.35 14.3733 139.367 14.4867 139.387 14.56C139.407 14.6267 139.437 14.6767 139.477 14.71C139.537 14.7633 139.617 14.7967 139.717 14.81C139.824 14.8167 139.93 14.82 140.037 14.82L140.067 14.86L140.087 15L140.067 15.04C139.954 15.0267 139.827 15.0167 139.687 15.01C139.547 15.0033 139.41 15 139.277 15C139.024 15 138.794 15.01 138.587 15.03L138.517 14.93C138.544 14.8433 138.564 14.73 138.577 14.59C138.59 14.45 138.6 14.3267 138.607 14.22C138.62 13.94 138.63 13.6667 138.637 13.4C138.644 13.1267 138.647 12.9 138.647 12.72C138.647 12.5667 138.64 12.4 138.627 12.22C138.62 12.04 138.6 11.8833 138.567 11.75C138.5 11.4367 138.364 11.2033 138.157 11.05C137.95 10.8967 137.71 10.82 137.437 10.82C137.217 10.82 137.01 10.8667 136.817 10.96C136.63 11.0533 136.47 11.17 136.337 11.31C136.204 11.4433 136.097 11.5867 136.017 11.74C135.944 11.8867 135.907 12.0133 135.907 12.12V13.25C135.907 13.3967 135.907 13.5167 135.907 13.61C135.907 13.7033 135.907 13.7833 135.907 13.85C135.914 13.9167 135.92 13.98 135.927 14.04C135.934 14.0933 135.94 14.1533 135.947 14.22C135.96 14.36 135.974 14.4667 135.987 14.54C136.007 14.6067 136.044 14.6633 136.097 14.71C136.15 14.7567 136.224 14.7867 136.317 14.8C136.417 14.8133 136.517 14.82 136.617 14.82L136.667 14.87L136.687 15L136.667 15.04C136.62 15.04 136.55 15.0367 136.457 15.03C136.364 15.0233 136.264 15.0167 136.157 15.01C136.05 15.01 135.95 15.0067 135.857 15C135.764 15 135.694 15 135.647 15H135.507C135.46 15 135.387 15 135.287 15C135.194 15.0067 135.094 15.01 134.987 15.01C134.887 15.0167 134.787 15.0233 134.687 15.03C134.594 15.0367 134.524 15.04 134.477 15.04L134.467 15L134.477 14.86L134.517 14.82C134.624 14.82 134.727 14.8167 134.827 14.81C134.934 14.7967 135.014 14.7633 135.067 14.71C135.12 14.6633 135.154 14.6033 135.167 14.53C135.187 14.4567 135.204 14.3533 135.217 14.22C135.224 14.1133 135.23 14.0067 135.237 13.9C135.244 13.7867 135.247 13.61 135.247 13.37V12.14C135.247 12 135.247 11.8833 135.247 11.79C135.247 11.69 135.244 11.6033 135.237 11.53C135.237 11.4567 135.234 11.39 135.227 11.33C135.227 11.27 135.224 11.2067 135.217 11.14C135.204 11.0667 135.184 11.0033 135.157 10.95C135.13 10.89 135.107 10.85 135.087 10.83C135.02 10.75 134.937 10.7033 134.837 10.69C134.737 10.67 134.634 10.66 134.527 10.66L134.487 10.62V10.48L134.527 10.45H134.707C134.82 10.45 134.964 10.45 135.137 10.45C135.31 10.4433 135.46 10.43 135.587 10.41L135.937 10.36L135.997 10.45C135.964 10.5367 135.94 10.6567 135.927 10.81C135.914 10.9567 135.904 11.1 135.897 11.24L135.927 11.26ZM143.241 12.35C143.521 12.41 143.744 12.4933 143.911 12.6C144.084 12.7 144.217 12.81 144.311 12.93C144.404 13.05 144.464 13.1733 144.491 13.3C144.524 13.42 144.541 13.5333 144.541 13.64C144.541 13.8533 144.497 14.05 144.411 14.23C144.324 14.41 144.197 14.5667 144.031 14.7C143.871 14.8267 143.674 14.9267 143.441 15C143.207 15.0733 142.944 15.11 142.651 15.11C142.324 15.11 142.017 15.0733 141.731 15C141.451 14.92 141.227 14.8367 141.061 14.75L141.041 14.66L141.191 13.63H141.421L141.451 13.67C141.451 13.99 141.551 14.2433 141.751 14.43C141.951 14.61 142.241 14.7 142.621 14.7C142.847 14.7 143.037 14.6733 143.191 14.62C143.344 14.5667 143.464 14.4967 143.551 14.41C143.644 14.3233 143.711 14.23 143.751 14.13C143.791 14.03 143.811 13.9333 143.811 13.84C143.811 13.78 143.807 13.7133 143.801 13.64C143.794 13.56 143.767 13.4833 143.721 13.41C143.674 13.33 143.604 13.2567 143.511 13.19C143.417 13.1167 143.284 13.0567 143.111 13.01L142.151 12.77C141.931 12.7167 141.751 12.6467 141.611 12.56C141.471 12.4733 141.361 12.38 141.281 12.28C141.201 12.1733 141.144 12.0633 141.111 11.95C141.077 11.83 141.061 11.71 141.061 11.59C141.061 11.37 141.104 11.1767 141.191 11.01C141.277 10.8367 141.394 10.6967 141.541 10.59C141.694 10.4767 141.871 10.3933 142.071 10.34C142.271 10.28 142.487 10.25 142.721 10.25C143.034 10.25 143.321 10.29 143.581 10.37C143.847 10.45 144.054 10.53 144.201 10.61L144.231 10.7L144.121 11.47H143.911L143.871 11.44C143.871 11.2867 143.827 11.16 143.741 11.06C143.661 10.9533 143.561 10.87 143.441 10.81C143.321 10.7433 143.194 10.6967 143.061 10.67C142.927 10.6433 142.811 10.63 142.711 10.63C142.377 10.63 142.137 10.7133 141.991 10.88C141.844 11.0467 141.771 11.2333 141.771 11.44C141.771 11.5933 141.821 11.74 141.921 11.88C142.027 12.0133 142.231 12.1167 142.531 12.19L143.241 12.35Z" fill="#F1F1F1"/>
<path d="M26.559 19.848L26.508 20.494L26.44 20.562C26.2587 20.562 26.0887 20.5733 25.93 20.596C25.7713 20.6073 25.6353 20.6527 25.522 20.732C25.42 20.8113 25.3237 20.9133 25.233 21.038C25.1537 21.1627 25.114 21.3837 25.114 21.701C25.1027 21.8597 25.0913 22.007 25.08 22.143C25.08 22.279 25.0743 22.4377 25.063 22.619C25.063 22.8003 25.063 23.0213 25.063 23.282C25.063 23.5427 25.063 23.877 25.063 24.285V26.733C25.063 27.141 25.063 27.4753 25.063 27.736C25.063 27.9853 25.063 28.195 25.063 28.365C25.0743 28.535 25.08 28.6823 25.08 28.807C25.0913 28.9203 25.1027 29.045 25.114 29.181C25.1367 29.4983 25.1877 29.7193 25.267 29.844C25.3463 29.9687 25.4313 30.0707 25.522 30.15C25.624 30.2293 25.7543 30.2803 25.913 30.303C26.083 30.3143 26.2587 30.32 26.44 30.32L26.508 30.388L26.559 31.034L26.525 31.102C26.4457 31.102 26.3153 31.0963 26.134 31.085C25.9527 31.0737 25.7657 31.0623 25.573 31.051C25.3803 31.0397 25.1933 31.0283 25.012 31.017C24.8307 31.0057 24.7003 31 24.621 31H23.618C23.5387 31 23.4083 31.0057 23.227 31.017C23.0457 31.0283 22.8587 31.0397 22.666 31.051C22.4733 31.0623 22.2863 31.0737 22.105 31.085C21.9237 31.0963 21.7933 31.102 21.714 31.102L21.68 31.034L21.731 30.388L21.816 30.32C21.9973 30.32 22.1673 30.3143 22.326 30.303C22.496 30.2803 22.6263 30.2293 22.717 30.15C22.8077 30.0707 22.887 29.9687 22.955 29.844C23.0343 29.7193 23.0967 29.4983 23.142 29.181C23.142 29.1017 23.142 29.011 23.142 28.909C23.1533 28.7957 23.159 28.6597 23.159 28.501C23.1703 28.3423 23.176 28.1497 23.176 27.923C23.176 27.6963 23.176 27.413 23.176 27.073V24.302C23.176 23.9053 23.176 23.571 23.176 23.299C23.176 23.027 23.1703 22.7947 23.159 22.602C23.159 22.4093 23.1533 22.245 23.142 22.109C23.142 21.973 23.1363 21.837 23.125 21.701C23.1023 21.4063 23.0513 21.191 22.972 21.055C22.8927 20.919 22.8077 20.8113 22.717 20.732C22.615 20.6527 22.4847 20.6073 22.326 20.596C22.1673 20.5733 21.9973 20.562 21.816 20.562L21.731 20.494L21.68 19.848L21.714 19.78C21.7933 19.78 21.9237 19.7857 22.105 19.797C22.2863 19.8083 22.4733 19.8197 22.666 19.831C22.8587 19.8423 23.0457 19.8537 23.227 19.865C23.4083 19.8763 23.5387 19.882 23.618 19.882H24.621C24.7003 19.882 24.8307 19.8763 25.012 19.865C25.1933 19.8537 25.3803 19.8423 25.573 19.831C25.7657 19.8197 25.9527 19.8083 26.134 19.797C26.3153 19.7857 26.4457 19.78 26.525 19.78L26.559 19.848ZM38.0372 20.936C37.9352 21.004 37.7822 21.1287 37.5782 21.31C37.3855 21.4913 37.1702 21.7067 36.9322 21.956C36.6942 22.194 36.4392 22.4547 36.1672 22.738C35.9065 23.0213 35.6515 23.2933 35.4022 23.554L34.2462 24.778C34.6769 25.4127 35.0905 26.053 35.4872 26.699C35.8952 27.3337 36.3655 27.9457 36.8982 28.535C37.1249 28.7957 37.3459 29.028 37.5612 29.232C37.7879 29.4247 38.0259 29.5947 38.2752 29.742C38.5245 29.878 38.7909 29.997 39.0742 30.099C39.3575 30.1897 39.6805 30.2633 40.0432 30.32L40.1452 30.388L40.1792 31.034L40.1452 31.102C39.9752 31.102 39.7939 31.102 39.6012 31.102C39.4085 31.1133 39.2102 31.1247 39.0062 31.136C38.8135 31.1473 38.6322 31.153 38.4622 31.153C38.2922 31.1643 38.1505 31.17 38.0372 31.17C37.7425 31.17 37.4705 31.1303 37.2212 31.051C36.9719 30.983 36.7282 30.864 36.4902 30.694C36.2635 30.524 36.0312 30.2973 35.7932 30.014C35.5552 29.7307 35.2945 29.385 35.0112 28.977C34.9432 28.875 34.8242 28.6993 34.6542 28.45C34.4955 28.1893 34.3199 27.906 34.1272 27.6C33.9345 27.294 33.7419 26.988 33.5492 26.682C33.3565 26.3647 33.1865 26.0927 33.0392 25.866C32.9032 25.9907 32.7672 26.1153 32.6312 26.24C32.4952 26.3533 32.3649 26.4723 32.2402 26.597V26.733C32.2402 27.209 32.2402 27.5773 32.2402 27.838C32.2402 28.0873 32.2402 28.2913 32.2402 28.45C32.2515 28.5973 32.2572 28.722 32.2572 28.824C32.2685 28.9147 32.2799 29.0337 32.2912 29.181C32.3139 29.5097 32.3649 29.7363 32.4442 29.861C32.5235 29.9857 32.6085 30.082 32.6992 30.15C32.8012 30.2407 32.9315 30.2917 33.0902 30.303C33.2602 30.3143 33.4359 30.32 33.6172 30.32L33.6852 30.388L33.7362 31.034L33.7022 31.102C33.6229 31.102 33.4925 31.0963 33.3112 31.085C33.1299 31.0737 32.9429 31.0623 32.7502 31.051C32.5575 31.0397 32.3705 31.0283 32.1892 31.017C32.0079 31.0057 31.8775 31 31.7982 31H30.7952C30.7159 31 30.5855 31.0057 30.4042 31.017C30.2229 31.0283 30.0359 31.0397 29.8432 31.051C29.6505 31.0623 29.4635 31.0737 29.2822 31.085C29.1009 31.0963 28.9705 31.102 28.8912 31.102L28.8572 31.034L28.9082 30.388L28.9932 30.32C29.1745 30.32 29.3445 30.3143 29.5032 30.303C29.6619 30.2803 29.7922 30.2293 29.8942 30.15C29.9849 30.0707 30.0699 29.9687 30.1492 29.844C30.2399 29.7193 30.2965 29.4983 30.3192 29.181C30.3192 29.1017 30.3192 29.011 30.3192 28.909C30.3305 28.7957 30.3362 28.6597 30.3362 28.501C30.3475 28.3423 30.3532 28.1497 30.3532 27.923C30.3532 27.6963 30.3532 27.413 30.3532 27.073V24.302C30.3532 23.9053 30.3532 23.571 30.3532 23.299C30.3532 23.027 30.3532 22.7947 30.3532 22.602C30.3532 22.4093 30.3475 22.245 30.3362 22.109C30.3362 21.973 30.3305 21.837 30.3192 21.701C30.2965 21.395 30.2399 21.174 30.1492 21.038C30.0699 20.902 29.9849 20.8 29.8942 20.732C29.7922 20.6413 29.6619 20.5903 29.5032 20.579C29.3445 20.5677 29.1745 20.562 28.9932 20.562L28.9082 20.494L28.8572 19.848L28.8912 19.78C28.9705 19.78 29.1009 19.7857 29.2822 19.797C29.4635 19.8083 29.6505 19.8197 29.8432 19.831C30.0359 19.8423 30.2229 19.8537 30.4042 19.865C30.5855 19.8763 30.7159 19.882 30.7952 19.882H31.7982C31.8775 19.882 32.0079 19.8763 32.1892 19.865C32.3705 19.8537 32.5575 19.8423 32.7502 19.831C32.9429 19.8197 33.1299 19.8083 33.3112 19.797C33.4925 19.7857 33.6229 19.78 33.7022 19.78L33.7362 19.848L33.6852 20.494L33.6172 20.562C33.4585 20.562 33.2885 20.5733 33.1072 20.596C32.9372 20.6073 32.8012 20.6527 32.6992 20.732C32.6085 20.8113 32.5179 20.9133 32.4272 21.038C32.3479 21.1627 32.3025 21.3837 32.2912 21.701C32.2799 21.837 32.2685 21.973 32.2572 22.109C32.2572 22.2337 32.2515 22.3867 32.2402 22.568C32.2402 22.738 32.2402 22.942 32.2402 23.18C32.2402 23.4067 32.2402 23.6843 32.2402 24.013V24.829C32.4669 24.7157 32.7275 24.5457 33.0222 24.319C33.3169 24.081 33.6115 23.826 33.9062 23.554C34.1215 23.35 34.3425 23.129 34.5692 22.891C34.7959 22.6417 34.9999 22.4037 35.1812 22.177C35.3739 21.9503 35.5269 21.7463 35.6402 21.565C35.7535 21.3837 35.8102 21.259 35.8102 21.191C35.8102 21.0663 35.7819 20.97 35.7252 20.902C35.6799 20.8227 35.6119 20.7603 35.5212 20.715C35.4419 20.6697 35.3455 20.6357 35.2322 20.613C35.1189 20.5903 35.0055 20.5677 34.8922 20.545L34.8072 20.477V19.831L34.8922 19.763C35.1189 19.8083 35.3569 19.8367 35.6062 19.848C35.8669 19.8593 36.1275 19.865 36.3882 19.865H37.9012C38.0372 19.865 38.1505 19.865 38.2412 19.865C38.3432 19.865 38.4395 19.8593 38.5302 19.848C38.6322 19.8367 38.7399 19.8253 38.8532 19.814C38.9665 19.8027 39.1025 19.7857 39.2612 19.763L39.3292 19.831V20.477L39.2612 20.545C39.1025 20.5677 38.8985 20.613 38.6492 20.681C38.4112 20.749 38.2072 20.834 38.0372 20.936ZM46.5251 19.882C46.6838 19.882 46.9161 19.882 47.2221 19.882C47.5394 19.8707 47.8624 19.8593 48.1911 19.848C48.5198 19.8367 48.8144 19.831 49.0751 19.831C49.3358 19.8197 49.4944 19.814 49.5511 19.814L49.6531 19.984L49.5681 22.177H48.8031L48.7351 22.109C48.7124 21.8937 48.6784 21.7237 48.6331 21.599C48.5991 21.4743 48.4971 21.3837 48.3271 21.327C48.1571 21.2703 47.8908 21.2363 47.5281 21.225C47.1768 21.2137 46.6838 21.208 46.0491 21.208H45.0801L45.0631 21.361C45.0518 21.5197 45.0404 21.667 45.0291 21.803C45.0291 21.939 45.0234 22.0977 45.0121 22.279C45.0121 22.4603 45.0121 22.6813 45.0121 22.942C45.0121 23.2027 45.0121 23.537 45.0121 23.945V24.523C45.2841 24.5117 45.5448 24.5117 45.7941 24.523C46.0434 24.523 46.2758 24.5173 46.4911 24.506C46.7064 24.4947 46.8878 24.4777 47.0351 24.455C47.1938 24.421 47.3071 24.37 47.3751 24.302C47.4884 24.1887 47.5451 24.03 47.5451 23.826L47.6301 23.741L48.2591 23.707L48.3271 23.741C48.3044 24.0017 48.2818 24.2283 48.2591 24.421C48.2478 24.6137 48.2421 24.8347 48.2421 25.084C48.2421 25.356 48.2478 25.611 48.2591 25.849C48.2818 26.0757 48.3044 26.325 48.3271 26.597L48.2591 26.631L47.6131 26.597L47.5451 26.546C47.5451 26.2627 47.4941 26.053 47.3921 25.917C47.3014 25.7923 47.0408 25.7243 46.6101 25.713C46.1908 25.6903 45.7204 25.679 45.1991 25.679H45.0121V27.073C45.0121 27.4017 45.0121 27.6737 45.0121 27.889C45.0234 28.1043 45.0291 28.2913 45.0291 28.45C45.0404 28.5973 45.0518 28.739 45.0631 28.875C45.0744 29.011 45.0858 29.1697 45.0971 29.351C45.1084 29.5663 45.2218 29.674 45.4371 29.674H46.2021C46.8481 29.674 47.3524 29.6627 47.7151 29.64C48.0891 29.6173 48.3724 29.5663 48.5651 29.487C48.7578 29.3963 48.8938 29.2717 48.9731 29.113C49.0638 28.9543 49.1431 28.739 49.2111 28.467L49.2791 28.399H50.0781L49.7551 30.898L49.6191 31.068C49.5624 31.068 49.4208 31.0623 49.1941 31.051C48.9788 31.051 48.7351 31.0453 48.4631 31.034C48.1911 31.0227 47.9191 31.0113 47.6471 31C47.3751 31 47.1598 31 47.0011 31H43.5671C43.4878 31 43.3574 31.0057 43.1761 31.017C42.9948 31.0283 42.8078 31.0397 42.6151 31.051C42.4224 31.0623 42.2354 31.0737 42.0541 31.085C41.8728 31.0963 41.7424 31.102 41.6631 31.102L41.6291 31.034L41.6801 30.388L41.7651 30.32C41.9464 30.32 42.1164 30.3143 42.2751 30.303C42.4338 30.2803 42.5641 30.2293 42.6661 30.15C42.7568 30.0707 42.8418 29.9687 42.9211 29.844C43.0118 29.7193 43.0684 29.4983 43.0911 29.181C43.0911 29.1017 43.0911 29.011 43.0911 28.909C43.1024 28.7957 43.1081 28.6597 43.1081 28.501C43.1194 28.3423 43.1251 28.1497 43.1251 27.923C43.1251 27.6963 43.1251 27.413 43.1251 27.073V24.302C43.1251 23.9053 43.1251 23.571 43.1251 23.299C43.1251 23.027 43.1251 22.7947 43.1251 22.602C43.1251 22.4093 43.1194 22.245 43.1081 22.109C43.1081 21.973 43.1024 21.837 43.0911 21.701C43.0684 21.395 43.0118 21.174 42.9211 21.038C42.8418 20.902 42.7568 20.8 42.6661 20.732C42.5641 20.6413 42.4338 20.5903 42.2751 20.579C42.1164 20.5677 41.9464 20.562 41.7651 20.562L41.6801 20.494L41.6291 19.848L41.6631 19.78C41.7424 19.78 41.8728 19.7857 42.0541 19.797C42.2354 19.8083 42.4281 19.8197 42.6321 19.831C42.8474 19.8423 43.0514 19.8537 43.2441 19.865C43.4481 19.8763 43.6124 19.882 43.7371 19.882H46.5251ZM58.5644 26.24L58.2924 27.634H52.7164L52.9714 26.24H58.5644ZM69.7806 22.381C69.7466 22.1317 69.6389 21.922 69.4576 21.752C69.2762 21.5707 69.0496 21.429 68.7776 21.327C68.5169 21.225 68.2222 21.1513 67.8936 21.106C67.5762 21.0607 67.2589 21.038 66.9416 21.038C65.9329 21.038 65.1509 21.293 64.5956 21.803C64.1649 22.1883 63.8532 22.704 63.6606 23.35C63.4679 23.9847 63.3716 24.676 63.3716 25.424C63.3716 26.138 63.4679 26.767 63.6606 27.311C63.8646 27.855 64.1366 28.314 64.4766 28.688C64.8279 29.0507 65.2416 29.3283 65.7176 29.521C66.1936 29.7023 66.7149 29.793 67.2816 29.793C67.7689 29.793 68.3299 29.742 68.9646 29.64C69.6106 29.5267 70.2169 29.317 70.7836 29.011L70.9876 29.385L70.5796 30.133C69.9902 30.4957 69.3952 30.762 68.7946 30.932C68.2052 31.102 67.5989 31.187 66.9756 31.187C66.1256 31.187 65.3549 31.051 64.6636 30.779C63.9722 30.507 63.3772 30.1217 62.8786 29.623C62.3912 29.113 62.0116 28.5123 61.7396 27.821C61.4676 27.1183 61.3316 26.342 61.3316 25.492C61.3316 24.6987 61.4506 23.9507 61.6886 23.248C61.9379 22.534 62.3006 21.9163 62.7766 21.395C63.2639 20.8737 63.8589 20.46 64.5616 20.154C65.2756 19.848 66.1029 19.695 67.0436 19.695C67.2702 19.695 67.5366 19.7063 67.8426 19.729C68.1486 19.7403 68.4716 19.7743 68.8116 19.831C69.1516 19.8763 69.4916 19.95 69.8316 20.052C70.1829 20.1427 70.5172 20.2617 70.8346 20.409L70.8856 20.562L70.6646 22.449H69.8316L69.7806 22.381ZM79.1032 19.695L82.0272 27.413C82.1292 27.6963 82.2199 27.9343 82.2992 28.127C82.3785 28.3197 82.4409 28.484 82.4862 28.62C82.5429 28.756 82.5882 28.8693 82.6222 28.96C82.6675 29.0393 82.7072 29.113 82.7412 29.181C82.8772 29.4643 83.0132 29.6853 83.1492 29.844C83.2965 29.9913 83.4382 30.1047 83.5742 30.184C83.7215 30.252 83.8689 30.2917 84.0162 30.303C84.1635 30.3143 84.3109 30.32 84.4582 30.32L84.5432 30.388L84.5942 31.034L84.5602 31.102C84.4809 31.102 84.3619 31.0963 84.2032 31.085C84.0445 31.0737 83.8802 31.0623 83.7102 31.051C83.5402 31.0397 83.3759 31.0283 83.2172 31.017C83.0699 31.0057 82.9565 31 82.8772 31H81.6362C81.5569 31 81.4265 31.0057 81.2452 31.017C81.0639 31.0283 80.8712 31.0397 80.6672 31.051C80.4745 31.0623 80.2875 31.0737 80.1062 31.085C79.9249 31.0963 79.7945 31.102 79.7152 31.102L79.6812 31.034L79.7322 30.388L79.8002 30.32C80.0949 30.32 80.3159 30.286 80.4632 30.218C80.6219 30.1387 80.7012 29.9347 80.7012 29.606C80.7012 29.4247 80.6672 29.1697 80.5992 28.841C80.5425 28.501 80.4009 28.0817 80.1742 27.583L79.8172 26.767H76.8422L76.5022 27.583C76.2982 28.0817 76.1452 28.5067 76.0432 28.858C75.9412 29.2093 75.8902 29.4587 75.8902 29.606C75.8902 29.878 75.9469 30.065 76.0602 30.167C76.1735 30.269 76.3775 30.32 76.6722 30.32L76.7572 30.388L76.8082 31.034L76.7742 31.102C76.6949 31.102 76.5702 31.0963 76.4002 31.085C76.2302 31.0737 76.0489 31.0623 75.8562 31.051C75.6749 31.0397 75.4992 31.0283 75.3292 31.017C75.1592 31.0057 75.0345 31 74.9552 31H73.9522C73.8729 31 73.7539 31.0057 73.5952 31.017C73.4365 31.0283 73.2722 31.0397 73.1022 31.051C72.9322 31.0623 72.7679 31.0737 72.6092 31.085C72.4619 31.0963 72.3485 31.102 72.2692 31.102L72.2522 31.034L72.2862 30.388L72.3712 30.32C72.5185 30.32 72.6659 30.3087 72.8132 30.286C72.9605 30.2633 73.1079 30.2123 73.2552 30.133C73.4025 30.0537 73.5442 29.946 73.6802 29.81C73.8275 29.6627 73.9749 29.4757 74.1222 29.249C74.1562 29.181 74.2072 29.079 74.2752 28.943C74.3432 28.7957 74.4509 28.5407 74.5982 28.178C74.7455 27.8153 74.9495 27.2997 75.2102 26.631C75.4709 25.9623 75.8165 25.0727 76.2472 23.962L77.7092 20.205L78.9162 19.695H79.1032ZM77.1312 25.526H79.3582L78.2702 22.517L77.1312 25.526ZM96.9357 19.848L96.8847 20.494L96.8167 20.562C96.658 20.562 96.488 20.5733 96.3067 20.596C96.1367 20.6073 96.0007 20.6527 95.8987 20.732C95.808 20.8113 95.7173 20.9133 95.6267 21.038C95.5473 21.1627 95.4963 21.3837 95.4737 21.701C95.4737 21.837 95.468 21.973 95.4567 22.109C95.4567 22.245 95.451 22.4093 95.4397 22.602C95.4397 22.7947 95.4397 23.027 95.4397 23.299C95.4397 23.571 95.4397 23.9053 95.4397 24.302V27.226C95.4397 27.7813 95.3433 28.3027 95.1507 28.79C94.9693 29.266 94.6973 29.6853 94.3347 30.048C93.972 30.3993 93.5187 30.677 92.9747 30.881C92.442 31.085 91.83 31.187 91.1387 31.187C90.2887 31.187 89.5747 31.085 88.9967 30.881C88.43 30.677 87.9767 30.3993 87.6367 30.048C87.2967 29.6853 87.053 29.266 86.9057 28.79C86.7583 28.3027 86.6847 27.7813 86.6847 27.226V24.302C86.6847 23.9053 86.6847 23.571 86.6847 23.299C86.6847 23.027 86.6847 22.7947 86.6847 22.602C86.6847 22.4093 86.679 22.245 86.6677 22.109C86.6677 21.973 86.662 21.837 86.6507 21.701C86.628 21.395 86.5713 21.174 86.4807 21.038C86.4013 20.902 86.3163 20.8 86.2257 20.732C86.1237 20.6413 85.9933 20.5903 85.8347 20.579C85.676 20.5677 85.506 20.562 85.3247 20.562L85.2397 20.494L85.1887 19.848L85.2227 19.78C85.302 19.78 85.4323 19.7857 85.6137 19.797C85.795 19.8083 85.982 19.8197 86.1747 19.831C86.3673 19.8423 86.5543 19.8537 86.7357 19.865C86.917 19.8763 87.0473 19.882 87.1267 19.882H88.1297C88.209 19.882 88.3393 19.8763 88.5207 19.865C88.702 19.8537 88.889 19.8423 89.0817 19.831C89.2743 19.8197 89.4613 19.8083 89.6427 19.797C89.824 19.7857 89.9543 19.78 90.0337 19.78L90.0677 19.848L90.0167 20.494L89.9487 20.562C89.79 20.562 89.62 20.5733 89.4387 20.596C89.2687 20.6073 89.1327 20.6527 89.0307 20.732C88.94 20.8113 88.855 20.9133 88.7757 21.038C88.6963 21.1627 88.6453 21.3837 88.6227 21.701C88.6113 21.8597 88.6 22.007 88.5887 22.143C88.5887 22.279 88.583 22.4377 88.5717 22.619C88.5717 22.8003 88.5717 23.0213 88.5717 23.282C88.5717 23.5427 88.5717 23.877 88.5717 24.285V26.75C88.5717 27.804 88.7757 28.5577 89.1837 29.011C89.603 29.453 90.2433 29.674 91.1047 29.674C91.49 29.674 91.847 29.623 92.1757 29.521C92.5043 29.4077 92.7877 29.232 93.0257 28.994C93.2637 28.756 93.4507 28.4557 93.5867 28.093C93.7227 27.719 93.7907 27.2713 93.7907 26.75V24.285C93.7907 23.877 93.7907 23.5427 93.7907 23.282C93.7907 23.0213 93.785 22.8003 93.7737 22.619C93.7737 22.4377 93.768 22.279 93.7567 22.143C93.7567 22.007 93.751 21.8597 93.7397 21.701C93.717 21.3723 93.6603 21.1457 93.5697 21.021C93.4903 20.8963 93.4053 20.8 93.3147 20.732C93.224 20.6413 93.0937 20.5903 92.9237 20.579C92.765 20.5677 92.595 20.562 92.4137 20.562L92.3287 20.494L92.2777 19.848L92.3117 19.78C92.391 19.78 92.51 19.7857 92.6687 19.797C92.8273 19.8083 92.9917 19.8197 93.1617 19.831C93.343 19.8423 93.513 19.8537 93.6717 19.865C93.8303 19.8763 93.9493 19.882 94.0287 19.882H95.0827C95.162 19.882 95.2867 19.8763 95.4567 19.865C95.6267 19.8537 95.8023 19.8423 95.9837 19.831C96.1763 19.8197 96.3577 19.8083 96.5277 19.797C96.6977 19.7857 96.8223 19.78 96.9017 19.78L96.9357 19.848ZM107.333 22.381C107.299 22.1317 107.191 21.922 107.01 21.752C106.828 21.5707 106.602 21.429 106.33 21.327C106.069 21.225 105.774 21.1513 105.446 21.106C105.128 21.0607 104.811 21.038 104.494 21.038C103.485 21.038 102.703 21.293 102.148 21.803C101.717 22.1883 101.405 22.704 101.213 23.35C101.02 23.9847 100.924 24.676 100.924 25.424C100.924 26.138 101.02 26.767 101.213 27.311C101.417 27.855 101.689 28.314 102.029 28.688C102.38 29.0507 102.794 29.3283 103.27 29.521C103.746 29.7023 104.267 29.793 104.834 29.793C105.321 29.793 105.882 29.742 106.517 29.64C107.163 29.5267 107.769 29.317 108.336 29.011L108.54 29.385L108.132 30.133C107.542 30.4957 106.947 30.762 106.347 30.932C105.757 31.102 105.151 31.187 104.528 31.187C103.678 31.187 102.907 31.051 102.216 30.779C101.524 30.507 100.929 30.1217 100.431 29.623C99.9433 29.113 99.5636 28.5123 99.2916 27.821C99.0196 27.1183 98.8836 26.342 98.8836 25.492C98.8836 24.6987 99.0026 23.9507 99.2406 23.248C99.49 22.534 99.8526 21.9163 100.329 21.395C100.816 20.8737 101.411 20.46 102.114 20.154C102.828 19.848 103.655 19.695 104.596 19.695C104.822 19.695 105.089 19.7063 105.395 19.729C105.701 19.7403 106.024 19.7743 106.364 19.831C106.704 19.8763 107.044 19.95 107.384 20.052C107.735 20.1427 108.069 20.2617 108.387 20.409L108.438 20.562L108.217 22.449H107.384L107.333 22.381ZM116.655 19.695L119.579 27.413C119.681 27.6963 119.772 27.9343 119.851 28.127C119.931 28.3197 119.993 28.484 120.038 28.62C120.095 28.756 120.14 28.8693 120.174 28.96C120.22 29.0393 120.259 29.113 120.293 29.181C120.429 29.4643 120.565 29.6853 120.701 29.844C120.849 29.9913 120.99 30.1047 121.126 30.184C121.274 30.252 121.421 30.2917 121.568 30.303C121.716 30.3143 121.863 30.32 122.01 30.32L122.095 30.388L122.146 31.034L122.112 31.102C122.033 31.102 121.914 31.0963 121.755 31.085C121.597 31.0737 121.432 31.0623 121.262 31.051C121.092 31.0397 120.928 31.0283 120.769 31.017C120.622 31.0057 120.509 31 120.429 31H119.188C119.109 31 118.979 31.0057 118.797 31.017C118.616 31.0283 118.423 31.0397 118.219 31.051C118.027 31.0623 117.84 31.0737 117.658 31.085C117.477 31.0963 117.347 31.102 117.267 31.102L117.233 31.034L117.284 30.388L117.352 30.32C117.647 30.32 117.868 30.286 118.015 30.218C118.174 30.1387 118.253 29.9347 118.253 29.606C118.253 29.4247 118.219 29.1697 118.151 28.841C118.095 28.501 117.953 28.0817 117.726 27.583L117.369 26.767H114.394L114.054 27.583C113.85 28.0817 113.697 28.5067 113.595 28.858C113.493 29.2093 113.442 29.4587 113.442 29.606C113.442 29.878 113.499 30.065 113.612 30.167C113.726 30.269 113.93 30.32 114.224 30.32L114.309 30.388L114.36 31.034L114.326 31.102C114.247 31.102 114.122 31.0963 113.952 31.085C113.782 31.0737 113.601 31.0623 113.408 31.051C113.227 31.0397 113.051 31.0283 112.881 31.017C112.711 31.0057 112.587 31 112.507 31H111.504C111.425 31 111.306 31.0057 111.147 31.017C110.989 31.0283 110.824 31.0397 110.654 31.051C110.484 31.0623 110.32 31.0737 110.161 31.085C110.014 31.0963 109.901 31.102 109.821 31.102L109.804 31.034L109.838 30.388L109.923 30.32C110.071 30.32 110.218 30.3087 110.365 30.286C110.513 30.2633 110.66 30.2123 110.807 30.133C110.955 30.0537 111.096 29.946 111.232 29.81C111.38 29.6627 111.527 29.4757 111.674 29.249C111.708 29.181 111.759 29.079 111.827 28.943C111.895 28.7957 112.003 28.5407 112.15 28.178C112.298 27.8153 112.502 27.2997 112.762 26.631C113.023 25.9623 113.369 25.0727 113.799 23.962L115.261 20.205L116.468 19.695H116.655ZM114.683 25.526H116.91L115.822 22.517L114.683 25.526ZM125.669 22.449C125.669 22.7437 125.748 22.993 125.907 23.197C126.066 23.401 126.281 23.5823 126.553 23.741C126.825 23.8883 127.142 24.03 127.505 24.166C127.868 24.302 128.253 24.4437 128.661 24.591C129.069 24.7497 129.46 24.9197 129.834 25.101C130.208 25.271 130.537 25.4863 130.82 25.747C131.115 25.9963 131.347 26.2967 131.517 26.648C131.698 26.988 131.789 27.4017 131.789 27.889C131.789 28.3877 131.693 28.841 131.5 29.249C131.307 29.6457 131.03 29.9913 130.667 30.286C130.316 30.5693 129.879 30.7903 129.358 30.949C128.848 31.1077 128.276 31.187 127.641 31.187C126.961 31.187 126.281 31.102 125.601 30.932C124.921 30.762 124.315 30.5297 123.782 30.235L123.714 30.014L124.105 27.736H124.87L124.955 27.838C125.023 28.62 125.284 29.1753 125.737 29.504C126.202 29.8327 126.831 29.997 127.624 29.997C128.406 29.997 128.973 29.861 129.324 29.589C129.675 29.3057 129.851 28.892 129.851 28.348C129.851 27.9967 129.777 27.7077 129.63 27.481C129.483 27.2543 129.273 27.0617 129.001 26.903C128.74 26.7443 128.423 26.6027 128.049 26.478C127.675 26.3533 127.261 26.206 126.808 26.036C126.4 25.8887 126.02 25.73 125.669 25.56C125.318 25.3787 125.012 25.169 124.751 24.931C124.502 24.6817 124.303 24.387 124.156 24.047C124.009 23.707 123.935 23.299 123.935 22.823C123.935 21.8257 124.258 21.055 124.904 20.511C125.561 19.967 126.559 19.695 127.896 19.695C128.508 19.695 129.08 19.7687 129.613 19.916C130.146 20.052 130.593 20.2163 130.956 20.409L131.024 20.596L130.752 22.534H129.936L129.851 22.449C129.783 21.973 129.579 21.6047 129.239 21.344C128.899 21.0833 128.423 20.953 127.811 20.953C127.131 20.953 126.604 21.089 126.23 21.361C125.856 21.633 125.669 21.9957 125.669 22.449ZM145.467 19.848L145.416 20.494L145.348 20.562C145.189 20.562 145.019 20.5733 144.838 20.596C144.668 20.6073 144.532 20.6527 144.43 20.732C144.339 20.8113 144.248 20.9133 144.158 21.038C144.078 21.1627 144.027 21.3837 144.005 21.701C144.005 21.837 143.999 21.973 143.988 22.109C143.988 22.245 143.982 22.4093 143.971 22.602C143.971 22.7947 143.971 23.027 143.971 23.299C143.971 23.571 143.971 23.9053 143.971 24.302V27.226C143.971 27.7813 143.874 28.3027 143.682 28.79C143.5 29.266 143.228 29.6853 142.866 30.048C142.503 30.3993 142.05 30.677 141.506 30.881C140.973 31.085 140.361 31.187 139.67 31.187C138.82 31.187 138.106 31.085 137.528 30.881C136.961 30.677 136.508 30.3993 136.168 30.048C135.828 29.6853 135.584 29.266 135.437 28.79C135.289 28.3027 135.216 27.7813 135.216 27.226V24.302C135.216 23.9053 135.216 23.571 135.216 23.299C135.216 23.027 135.216 22.7947 135.216 22.602C135.216 22.4093 135.21 22.245 135.199 22.109C135.199 21.973 135.193 21.837 135.182 21.701C135.159 21.395 135.102 21.174 135.012 21.038C134.932 20.902 134.847 20.8 134.757 20.732C134.655 20.6413 134.524 20.5903 134.366 20.579C134.207 20.5677 134.037 20.562 133.856 20.562L133.771 20.494L133.72 19.848L133.754 19.78C133.833 19.78 133.963 19.7857 134.145 19.797C134.326 19.8083 134.513 19.8197 134.706 19.831C134.898 19.8423 135.085 19.8537 135.267 19.865C135.448 19.8763 135.578 19.882 135.658 19.882H136.661C136.74 19.882 136.87 19.8763 137.052 19.865C137.233 19.8537 137.42 19.8423 137.613 19.831C137.805 19.8197 137.992 19.8083 138.174 19.797C138.355 19.7857 138.485 19.78 138.565 19.78L138.599 19.848L138.548 20.494L138.48 20.562C138.321 20.562 138.151 20.5733 137.97 20.596C137.8 20.6073 137.664 20.6527 137.562 20.732C137.471 20.8113 137.386 20.9133 137.307 21.038C137.227 21.1627 137.176 21.3837 137.154 21.701C137.142 21.8597 137.131 22.007 137.12 22.143C137.12 22.279 137.114 22.4377 137.103 22.619C137.103 22.8003 137.103 23.0213 137.103 23.282C137.103 23.5427 137.103 23.877 137.103 24.285V26.75C137.103 27.804 137.307 28.5577 137.715 29.011C138.134 29.453 138.774 29.674 139.636 29.674C140.021 29.674 140.378 29.623 140.707 29.521C141.035 29.4077 141.319 29.232 141.557 28.994C141.795 28.756 141.982 28.4557 142.118 28.093C142.254 27.719 142.322 27.2713 142.322 26.75V24.285C142.322 23.877 142.322 23.5427 142.322 23.282C142.322 23.0213 142.316 22.8003 142.305 22.619C142.305 22.4377 142.299 22.279 142.288 22.143C142.288 22.007 142.282 21.8597 142.271 21.701C142.248 21.3723 142.191 21.1457 142.101 21.021C142.021 20.8963 141.936 20.8 141.846 20.732C141.755 20.6413 141.625 20.5903 141.455 20.579C141.296 20.5677 141.126 20.562 140.945 20.562L140.86 20.494L140.809 19.848L140.843 19.78C140.922 19.78 141.041 19.7857 141.2 19.797C141.358 19.8083 141.523 19.8197 141.693 19.831C141.874 19.8423 142.044 19.8537 142.203 19.865C142.361 19.8763 142.48 19.882 142.56 19.882H143.614C143.693 19.882 143.818 19.8763 143.988 19.865C144.158 19.8537 144.333 19.8423 144.515 19.831C144.707 19.8197 144.889 19.8083 145.059 19.797C145.229 19.7857 145.353 19.78 145.433 19.78L145.467 19.848ZM149.486 22.449C149.486 22.7437 149.566 22.993 149.724 23.197C149.883 23.401 150.098 23.5823 150.37 23.741C150.642 23.8883 150.96 24.03 151.322 24.166C151.685 24.302 152.07 24.4437 152.478 24.591C152.886 24.7497 153.277 24.9197 153.651 25.101C154.025 25.271 154.354 25.4863 154.637 25.747C154.932 25.9963 155.164 26.2967 155.334 26.648C155.516 26.988 155.606 27.4017 155.606 27.889C155.606 28.3877 155.51 28.841 155.317 29.249C155.125 29.6457 154.847 29.9913 154.484 30.286C154.133 30.5693 153.697 30.7903 153.175 30.949C152.665 31.1077 152.093 31.187 151.458 31.187C150.778 31.187 150.098 31.102 149.418 30.932C148.738 30.762 148.132 30.5297 147.599 30.235L147.531 30.014L147.922 27.736H148.687L148.772 27.838C148.84 28.62 149.101 29.1753 149.554 29.504C150.019 29.8327 150.648 29.997 151.441 29.997C152.223 29.997 152.79 29.861 153.141 29.589C153.493 29.3057 153.668 28.892 153.668 28.348C153.668 27.9967 153.595 27.7077 153.447 27.481C153.3 27.2543 153.09 27.0617 152.818 26.903C152.558 26.7443 152.24 26.6027 151.866 26.478C151.492 26.3533 151.079 26.206 150.625 26.036C150.217 25.8887 149.838 25.73 149.486 25.56C149.135 25.3787 148.829 25.169 148.568 24.931C148.319 24.6817 148.121 24.387 147.973 24.047C147.826 23.707 147.752 23.299 147.752 22.823C147.752 21.8257 148.075 21.055 148.721 20.511C149.379 19.967 150.376 19.695 151.713 19.695C152.325 19.695 152.898 19.7687 153.43 19.916C153.963 20.052 154.411 20.2163 154.773 20.409L154.841 20.596L154.569 22.534H153.753L153.668 22.449C153.6 21.973 153.396 21.6047 153.056 21.344C152.716 21.0833 152.24 20.953 151.628 20.953C150.948 20.953 150.421 21.089 150.047 21.361C149.673 21.633 149.486 21.9957 149.486 22.449Z" fill="#F1F1F1"/>
</svg>
