<svg width="15" height="15" viewBox="0 0 15 15" fill="none" xmlns="http://www.w3.org/2000/svg">
<g clip-path="url(#clip0_148_78)">
<path d="M14.6859 12.1397L12.5042 10.5812L8.1707 1.91455C8.04343 1.66005 7.78346 1.50006 7.49995 1.50006C7.49272 1.50006 7.48522 1.50006 7.47772 1.50032C7.18598 1.50882 6.92547 1.68607 6.81048 1.95457L4.55798 7.21051L4.24374 6.9355C4.10599 6.815 3.93024 6.74999 3.75001 6.74999C3.70876 6.74999 3.66724 6.75348 3.62576 6.76025C3.40375 6.79748 3.21051 6.93248 3.09877 7.12774L0.0987885 12.3777C-0.0337204 12.6099 -0.0329587 12.8949 0.101279 13.1262C0.235516 13.3577 0.48278 13.4999 0.750025 13.4999H14.2499C14.576 13.4999 14.8647 13.2892 14.9642 12.9789C15.0637 12.6682 14.9512 12.3292 14.6859 12.1397ZM7.49995 2.25006L9.01843 5.28703L7.64567 6.20253L7.08543 5.08228C7.02168 4.95528 6.89193 4.87504 6.74993 4.87504H6.37493L7.49995 2.25006ZM6.05346 5.62503H6.51845L7.16445 6.91777C7.2127 7.01401 7.29994 7.08476 7.40395 7.11251C7.43544 7.121 7.4677 7.12502 7.49995 7.12502C7.57319 7.12502 7.6457 7.10351 7.70796 7.06203L9.35645 5.96303L11.1997 9.64951L9.43594 8.38976C9.30469 8.29601 9.15193 8.25001 9.00018 8.25001C8.80694 8.25001 8.61493 8.32451 8.46967 8.46976L7.31594 9.6235L5.15171 7.72976L6.05346 5.62503ZM11.1252 10.518L10.4999 10.8307L9.16769 10.1645C9.08719 10.1245 8.99619 10.1147 8.90921 10.1362L7.51522 10.4848L8.99994 9L11.1252 10.518ZM3.74998 7.50002L5.03572 8.62501H4.49997C4.40048 8.62501 4.30524 8.6645 4.23472 8.73475L2.99998 9.96975L2.57925 9.54899L3.74998 7.50002ZM0.749995 12.75L2.19347 10.2238L2.73473 10.765C2.80797 10.8383 2.90398 10.875 2.99998 10.875C3.09599 10.875 3.19199 10.8385 3.26523 10.7653L4.65548 9.37503H5.89297L6.7842 10.155L4.18922 12.75H0.749995V12.75ZM5.24997 12.75L6.4847 11.5152L8.95594 10.8975L10.3322 11.5855C10.3849 11.6117 10.4427 11.625 10.4999 11.625C10.5572 11.625 10.6149 11.6117 10.6677 11.5855L11.8159 11.0115L14.2499 12.75H5.24997V12.75Z" fill="#F1F1F1"/>
</g>
<defs>
<clipPath id="clip0_148_78">
<rect width="15" height="15" fill="white"/>
</clipPath>
</defs>
</svg>
