<svg width="15" height="15" viewBox="0 0 15 15" fill="none" xmlns="http://www.w3.org/2000/svg">
<g clip-path="url(#clip0_148_31)">
<path d="M2.2902 9.89168C1.8059 9.92291 1.41537 10.3103 1.37788 10.7915C1.33415 11.3633 1.78405 11.8413 2.34643 11.8444C2.34957 11.8444 2.34957 11.8444 2.35267 11.8444C2.89317 11.8444 3.33371 11.4101 3.33371 10.8727C3.33684 10.3103 2.86505 9.85419 2.2902 9.89168ZM2.36205 11.2445C2.35891 11.2445 2.35891 11.2445 2.35581 11.2445C2.14336 11.2445 1.96838 11.0727 1.96527 10.8602C1.96214 10.6446 2.13399 10.4665 2.34957 10.4634C2.56515 10.4603 2.74324 10.6321 2.74637 10.8477C2.74947 11.0633 2.57763 11.2414 2.36205 11.2445Z" fill="#FFA600"/>
<path d="M13.6253 2.34324C13.6284 1.78086 13.1566 1.32471 12.5817 1.3622C12.0975 1.39343 11.7069 1.78086 11.6694 2.26202C11.6257 2.83377 12.0756 3.3118 12.638 3.31493C12.6411 3.31493 12.6411 3.31493 12.6442 3.31493C13.1847 3.3149 13.6222 2.88064 13.6253 2.34324ZM12.6536 2.71816C12.6505 2.71816 12.6505 2.71816 12.6474 2.71816C12.4318 2.71816 12.2599 2.54631 12.2568 2.33387C12.2537 2.11829 12.4256 1.9402 12.6411 1.93707C12.8567 1.93393 13.0348 2.10578 13.0379 2.32136C13.0411 2.53694 12.8692 2.71503 12.6536 2.71816Z" fill="#FFA600"/>
<path d="M12.638 6.47053H12.6411C12.6443 6.47053 12.6443 6.47053 12.6474 6.47053C12.7255 6.47053 12.8005 6.43928 12.8536 6.38618C12.9411 6.29868 14.9938 4.24288 14.9938 2.33078C14.9937 1.04665 13.9408 0 12.6474 0C11.3539 0 10.301 1.04665 10.301 2.33075C10.301 3.73984 11.4164 5.22702 12.0381 5.94561C11.6663 6.0331 11.4101 6.2143 11.3445 6.46426C11.2977 6.63922 11.3477 6.87981 11.6257 7.02665C12.0069 7.22662 12.085 7.36721 12.0819 7.39843C12.0631 7.67649 10.7759 8.13577 10.0854 8.3826C8.81067 8.83875 7.71402 9.22931 7.65465 9.90417C7.61092 10.4134 8.19205 10.7384 8.38261 10.8446C8.68255 11.0133 9.02935 11.2695 8.98248 11.5413C8.81067 12.5599 5.03957 13.7315 3.18685 14.2095C3.82108 13.4284 4.70528 12.1131 4.70528 10.8571C4.70528 9.57301 3.65237 8.52636 2.35578 8.52636C1.05917 8.52636 0.00628662 9.57614 0.00628662 10.8602C0.00628662 12.6349 1.77779 14.5345 2.09961 14.8657C2.14647 14.9407 2.22146 14.9907 2.30895 15C2.31208 15 2.31832 15 2.32145 15C2.32769 15 2.3402 15 2.34957 14.9969C2.35271 14.9969 2.35271 14.9969 2.35581 14.9969C2.35895 14.9969 2.36519 14.9938 2.36832 14.9938C3.06506 14.9219 8.9763 13.4691 9.52931 11.7757C9.65116 11.4008 9.60116 10.8477 8.67323 10.326C8.23894 10.0823 8.24521 9.95107 8.24521 9.95107C8.27019 9.65426 9.58242 9.18561 10.2854 8.93254C11.5914 8.46702 12.6224 8.09834 12.6693 7.43909C12.7005 7.01106 12.2756 6.71423 12.0132 6.56426C12.1256 6.51426 12.3256 6.45803 12.638 6.47053ZM2.35578 14.272C1.84964 13.719 0.596787 12.1974 0.596787 10.8602C0.596787 9.90104 1.38726 9.11683 2.35578 9.11683C3.32431 9.11683 4.11478 9.89793 4.11478 10.8571C4.11478 12.1943 2.86193 13.7159 2.35578 14.272ZM10.8883 2.33075C10.8883 1.37157 11.6757 0.590502 12.6473 0.590502C13.6159 0.590502 14.4063 1.3716 14.4063 2.33075C14.4063 3.66796 13.1535 5.18953 12.6473 5.74567C12.1412 5.18643 10.8883 3.66799 10.8883 2.33075Z" fill="#FFA600"/>
</g>
<defs>
<clipPath id="clip0_148_31">
<rect width="15" height="15" fill="white"/>
</clipPath>
</defs>
</svg>
