<svg width="30" height="30" viewBox="0 0 30 30" fill="none" xmlns="http://www.w3.org/2000/svg">
<circle cx="15" cy="15" r="15" fill="#F1F1F1"/>
<path d="M15 2C7.82024 2 2 7.82024 2 15C2 22.1798 7.82024 28 15 28C22.1798 28 28 22.1798 28 15C28 7.82024 22.1798 2 15 2Z" fill="#1E541B"/>
<path d="M21.8121 9.05342L19.3116 21.6607C19.3116 21.6607 18.9619 22.5351 18.0002 22.1154L12.2298 17.6914L10.1316 16.6773L6.5994 15.4882C6.5994 15.4882 6.05734 15.2959 6.00484 14.8762C5.95244 14.4565 6.6169 14.2293 6.6169 14.2293L20.658 8.72114C20.658 8.72114 21.8121 8.21407 21.8121 9.05342Z" fill="#F1F1F1"/>
<path d="M11.7863 21.5193C11.7863 21.5193 11.6179 21.5036 11.408 20.839C11.1982 20.1746 10.1316 16.6774 10.1316 16.6774L18.6122 11.2918C18.6122 11.2918 19.1019 10.9945 19.0844 11.2918C19.0844 11.2918 19.1718 11.3442 18.9095 11.589C18.6472 11.8339 12.2473 17.5867 12.2473 17.5867" fill="#4CBC46"/>
<path d="M14.4424 19.3877L12.1599 21.4687C12.1599 21.4687 11.9816 21.6041 11.7863 21.5192L12.2234 17.6538" fill="#4CBC46"/>
</svg>
