<svg width="15" height="15" viewBox="0 0 15 15" fill="none" xmlns="http://www.w3.org/2000/svg">
<g clip-path="url(#clip0_148_97)">
<path d="M14.8944 9.02245L14.2146 8.34265C14.0739 8.20187 13.8456 8.20182 13.7048 8.34265L11.1728 10.8746V6.64083C11.1728 3.56051 8.66683 1.05444 5.58656 1.05444C2.50616 1.05444 0 3.56046 0 6.64083V12.9382C0 13.1372 0.161357 13.2986 0.360495 13.2986H1.32181C1.52095 13.2986 1.68231 13.1372 1.68231 12.9382V6.64083C1.68231 4.48814 3.43374 2.73676 5.58661 2.73676C7.73925 2.73676 9.49058 4.48814 9.49058 6.64083V10.8746L6.95866 8.3427C6.89103 8.27507 6.79932 8.2371 6.70371 8.2371C6.60811 8.2371 6.51645 8.27507 6.44877 8.3427L5.76902 9.0225C5.70144 9.09008 5.66347 9.18179 5.66347 9.27739C5.66347 9.373 5.70144 9.46471 5.76902 9.53229L10.0768 13.8401C10.1472 13.9105 10.2394 13.9457 10.3317 13.9457C10.424 13.9457 10.5163 13.9105 10.5867 13.8401L14.8945 9.53229C14.9621 9.46471 15 9.373 15 9.27739C15 9.18174 14.962 9.09008 14.8944 9.02245Z" fill="#F1F1F1"/>
</g>
<defs>
<clipPath id="clip0_148_97">
<rect width="15" height="15" fill="white"/>
</clipPath>
</defs>
</svg>
