<!-- icon666.com - MILLIONS vector ICONS FREE --><svg viewBox="-88 0 464 464" xmlns="http://www.w3.org/2000/svg">
  <path
    d="m288 314.855469c0 82.367187-64.472656 149.144531-144 149.144531s-144-66.777344-144-149.144531c0-82.367188 144-314.855469 144-314.855469s144 232.488281 144 314.855469zm0 0"
    fill="#60a2d7"></path>
  <g fill="#a3d4f7">
    <path
      d="m104 392c-2.996094-.003906-5.738281-1.679688-7.105469-4.339844-1.371093-2.664062-1.136719-5.871094.601563-8.308594l80-112c2.566406-3.597656 7.5625-4.429687 11.160156-1.863281 3.597656 2.566407 4.429688 7.5625 1.863281 11.160157l-80 112c-1.503906 2.105468-3.933593 3.355468-6.519531 3.351562zm0 0">
    </path>
    <path
      d="m104 328c-13.457031 0-24-14.054688-24-32s10.542969-32 24-32 24 14.054688 24 32-10.542969 32-24 32zm0-48c-3.265625 0-8 6.230469-8 16s4.734375 16 8 16 8-6.230469 8-16-4.734375-16-8-16zm0 0">
    </path>
    <path
      d="m184 392c-13.457031 0-24-14.054688-24-32s10.542969-32 24-32 24 14.054688 24 32-10.542969 32-24 32zm0-48c-3.265625 0-8 6.230469-8 16s4.734375 16 8 16 8-6.230469 8-16-4.734375-16-8-16zm0 0">
    </path>
  </g>
</svg>