<?xml version="1.0" standalone="no"?>
<!DOCTYPE svg PUBLIC "-//W3C//DTD SVG 20010904//EN"
 "http://www.w3.org/TR/2001/REC-SVG-20010904/DTD/svg10.dtd">
<svg version="1.0" xmlns="http://www.w3.org/2000/svg"
 width="500.000000pt" height="500.000000pt" viewBox="0 0 500.000000 500.000000"
 preserveAspectRatio="xMidYMid meet">
<metadata>
Created by potrace 1.14, written by Peter Selinger 2001-2017
</metadata>
<g transform="translate(0.000000,500.000000) scale(0.100000,-0.100000)"
fill="#000000" stroke="none">
<path d="M1180 4015 c-154 -40 -233 -143 -201 -262 14 -50 59 -93 147 -137 99
-51 140 -94 168 -179 25 -75 25 -787 1 -1192 -8 -131 -15 -237 -20 -285 -2
-25 -7 -74 -10 -110 -7 -76 -13 -129 -21 -185 -28 -207 -40 -229 -175 -329
-91 -67 -115 -109 -106 -184 8 -66 31 -111 79 -150 75 -60 161 -73 383 -58
215 14 792 21 955 12 232 -14 693 -21 761 -12 19 3 57 8 84 11 131 16 278 61
393 122 243 128 432 370 488 625 23 105 21 273 -5 371 -53 201 -212 385 -422
487 -90 44 -112 59 -126 85 -20 37 -3 71 69 140 175 170 247 349 235 584 -12
250 -136 432 -374 551 -184 91 -338 110 -833 103 -473 -8 -1078 -8 -1270 -2
-101 4 -171 1 -200 -6z m1445 -456 c90 -45 156 -163 171 -306 19 -178 -8 -336
-71 -419 -54 -70 -157 -111 -256 -102 -104 10 -112 43 -114 413 -1 358 7 403
70 432 44 20 142 11 200 -18z m20 -1275 c184 -56 267 -213 261 -494 -4 -197
-53 -296 -173 -352 -48 -23 -80 -30 -135 -32 -151 -6 -204 46 -228 224 -17
121 -18 513 -1 570 14 49 45 79 95 90 34 8 148 4 181 -6z"/>
</g>
</svg>
